<?xml version="1.0" encoding="iso-8859-1"?>
<!-- Generator: Adobe Illustrator 19.0.0, SVG Export Plug-In . SVG Version: 6.00 Build 0)  -->
<svg version="1.1" id="Layer_1" xmlns="http://www.w3.org/2000/svg" xmlns:xlink="http://www.w3.org/1999/xlink" x="0px" y="0px"
	 viewBox="0 0 300 92" style="enable-background:new 0 0 300 92;" xml:space="preserve">
<g id="XMLID_2_">
	<path id="XMLID_70_" style="fill:#F0494F;" d="M23.24,45.194c0.402,0.567,1.004,0.996,1.809,1.288l-1.151,3.507
		c-1.499-0.183-2.704-0.603-3.617-1.26c-0.914-0.658-1.589-1.681-2.028-3.069c-1.937,2.886-4.804,4.329-8.604,4.329
		c-2.85,0-5.096-0.803-6.74-2.411c-1.644-1.607-2.466-3.707-2.466-6.302c0-3.069,1.105-5.425,3.315-7.069
		c2.21-1.644,5.343-2.466,9.398-2.466h4.438v-2.137c0-2.045-0.493-3.507-1.479-4.384c-0.986-0.877-2.503-1.315-4.548-1.315
		c-2.119,0-4.713,0.512-7.782,1.535l-1.26-3.672c3.58-1.315,6.905-1.973,9.974-1.973c3.397,0,5.937,0.832,7.617,2.493
		c1.68,1.663,2.521,4.028,2.521,7.097v13.207C22.638,43.76,22.838,44.627,23.24,45.194z M17.596,41.714v-6.631h-3.781
		c-5.334,0-8.001,1.973-8.001,5.918c0,1.718,0.419,3.014,1.26,3.891c0.84,0.876,2.083,1.316,3.727,1.316
		C13.687,46.208,15.952,44.71,17.596,41.714z"/>
	<path id="XMLID_73_" style="fill:#F0494F;" d="M39.515,13.3c-0.657,0.676-0.986,1.726-0.986,3.151v4h7.015l-0.548,3.891h-6.466
		v24.989h-5.042V24.342h-5.151v-3.891h5.151v-3.946c0-2.484,0.794-4.484,2.384-6c1.589-1.516,3.809-2.274,6.658-2.274
		c1.315,0,2.493,0.119,3.535,0.356c1.041,0.238,2.165,0.612,3.37,1.123l-1.589,3.672c-1.644-0.73-3.325-1.096-5.042-1.096
		C41.269,12.286,40.173,12.625,39.515,13.3z"/>
	<path id="XMLID_75_" style="fill:#F0494F;" d="M57.873,13.3c-0.657,0.676-0.986,1.726-0.986,3.151v4h7.015l-0.548,3.891h-6.466
		v24.989h-5.042V24.342h-5.151v-3.891h5.151v-3.946c0-2.484,0.794-4.484,2.384-6c1.589-1.516,3.809-2.274,6.658-2.274
		c1.315,0,2.493,0.119,3.535,0.356c1.041,0.238,2.165,0.612,3.37,1.123l-1.589,3.672c-1.644-0.73-3.325-1.096-5.042-1.096
		C59.627,12.286,58.531,12.625,57.873,13.3z"/>
	<path id="XMLID_77_" style="fill:#F0494F;" d="M91.082,23.739c1.717,2.63,2.576,6.339,2.576,11.125
		c0,4.53-0.987,8.184-2.959,10.959c-1.973,2.777-4.768,4.165-8.384,4.165c-3.215,0-5.736-1.096-7.563-3.288v13.7l-5.042,0.604
		V20.452h4.329l0.384,3.891c1.059-1.461,2.337-2.584,3.836-3.37c1.498-0.785,3.069-1.178,4.713-1.178
		C86.661,19.794,89.364,21.109,91.082,23.739z M88.232,34.864c0-7.379-2.174-11.069-6.521-11.069c-1.425,0-2.722,0.42-3.891,1.26
		c-1.169,0.841-2.192,1.918-3.069,3.233v14.083c0.73,1.133,1.644,2,2.74,2.603c1.096,0.603,2.301,0.903,3.617,0.903
		C85.856,45.878,88.232,42.207,88.232,34.864z"/>
	<path id="XMLID_80_" style="fill:#F0494F;" d="M121.769,45.194c0.402,0.567,1.004,0.996,1.809,1.288l-1.151,3.507
		c-1.499-0.183-2.704-0.603-3.617-1.26c-0.914-0.658-1.589-1.681-2.028-3.069c-1.937,2.886-4.804,4.329-8.604,4.329
		c-2.85,0-5.096-0.803-6.74-2.411c-1.644-1.607-2.466-3.707-2.466-6.302c0-3.069,1.105-5.425,3.315-7.069
		c2.21-1.644,5.343-2.466,9.398-2.466h4.438v-2.137c0-2.045-0.493-3.507-1.479-4.384c-0.986-0.877-2.503-1.315-4.548-1.315
		c-2.119,0-4.713,0.512-7.782,1.535l-1.26-3.672c3.58-1.315,6.905-1.973,9.974-1.973c3.397,0,5.937,0.832,7.617,2.493
		c1.68,1.663,2.521,4.028,2.521,7.097v13.207C121.167,43.76,121.367,44.627,121.769,45.194z M116.125,41.714v-6.631h-3.781
		c-5.334,0-8.001,1.973-8.001,5.918c0,1.718,0.419,3.014,1.26,3.891c0.84,0.876,2.083,1.316,3.727,1.316
		C112.215,46.208,114.481,44.71,116.125,41.714z"/>
	<path id="XMLID_83_" style="fill:#F0494F;" d="M152.896,23.739c1.717,2.63,2.576,6.339,2.576,11.125
		c0,4.53-0.987,8.184-2.96,10.959c-1.973,2.777-4.768,4.165-8.384,4.165c-3.215,0-5.736-1.096-7.563-3.288v13.7l-5.042,0.604V20.452
		h4.329l0.384,3.891c1.059-1.461,2.337-2.584,3.836-3.37c1.498-0.785,3.069-1.178,4.713-1.178
		C148.475,19.794,151.178,21.109,152.896,23.739z M150.046,34.864c0-7.379-2.174-11.069-6.521-11.069
		c-1.425,0-2.722,0.42-3.891,1.26c-1.169,0.841-2.192,1.918-3.069,3.233v14.083c0.73,1.133,1.644,2,2.74,2.603
		c1.096,0.603,2.301,0.903,3.617,0.903C147.67,45.878,150.046,42.207,150.046,34.864z"/>
	<path id="XMLID_86_" style="fill:#F0494F;" d="M183.583,45.194c0.402,0.567,1.005,0.996,1.809,1.288l-1.15,3.507
		c-1.499-0.183-2.704-0.603-3.617-1.26c-0.913-0.658-1.589-1.681-2.027-3.069c-1.937,2.886-4.805,4.329-8.604,4.329
		c-2.85,0-5.097-0.803-6.74-2.411c-1.645-1.607-2.467-3.707-2.467-6.302c0-3.069,1.105-5.425,3.315-7.069s5.344-2.466,9.398-2.466
		h4.438v-2.137c0-2.045-0.493-3.507-1.479-4.384c-0.986-0.877-2.503-1.315-4.548-1.315c-2.119,0-4.713,0.512-7.782,1.535
		l-1.26-3.672c3.58-1.315,6.904-1.973,9.974-1.973c3.397,0,5.937,0.832,7.617,2.493c1.68,1.663,2.521,4.028,2.521,7.097v13.207
		C182.98,43.76,183.181,44.627,183.583,45.194z M177.938,41.714v-6.631h-3.78c-5.335,0-8.001,1.973-8.001,5.918
		c0,1.718,0.419,3.014,1.26,3.891s2.083,1.316,3.727,1.316C174.029,46.208,176.295,44.71,177.938,41.714z"/>
	<path id="XMLID_89_" style="fill:#F0494F;" d="M197.393,43.467c0.73,0.731,1.096,1.626,1.096,2.686c0,1.06-0.365,1.964-1.096,2.712
		c-0.731,0.748-1.645,1.123-2.74,1.123c-1.061,0-1.955-0.375-2.686-1.123s-1.096-1.652-1.096-2.712c0-1.06,0.365-1.955,1.096-2.686
		c0.73-0.73,1.625-1.096,2.686-1.096C195.748,42.372,196.661,42.737,197.393,43.467z"/>
	<path id="XMLID_91_" style="fill:#F0494F;" d="M221.176,20.534c1.425,0.493,2.795,1.288,4.11,2.384l-2.411,3.178
		c-1.023-0.73-2.02-1.269-2.987-1.616s-2.037-0.521-3.205-0.521c-2.339,0-4.156,0.932-5.453,2.795
		c-1.298,1.863-1.945,4.622-1.945,8.275c0,3.653,0.639,6.348,1.918,8.083c1.278,1.735,3.104,2.603,5.48,2.603
		c1.132,0,2.173-0.173,3.123-0.521c0.949-0.347,2.009-0.904,3.179-1.671l2.302,3.288c-2.631,2.119-5.572,3.178-8.823,3.178
		c-3.909,0-6.987-1.314-9.234-3.945c-2.246-2.63-3.37-6.265-3.37-10.905c0-3.069,0.512-5.754,1.535-8.056
		c1.021-2.301,2.474-4.091,4.356-5.37c1.881-1.278,4.118-1.918,6.713-1.918C218.18,19.794,219.751,20.041,221.176,20.534z"/>
	<path id="XMLID_93_" style="fill:#F0494F;" d="M251.344,23.849c2.246,2.704,3.37,6.375,3.37,11.015
		c0,2.996-0.513,5.636-1.535,7.918c-1.022,2.284-2.502,4.056-4.438,5.315c-1.937,1.261-4.238,1.891-6.904,1.891
		c-4.056,0-7.216-1.351-9.48-4.055c-2.266-2.703-3.397-6.375-3.397-11.015c0-2.995,0.511-5.635,1.534-7.918
		c1.022-2.283,2.502-4.055,4.438-5.315c1.937-1.261,4.256-1.891,6.96-1.891C245.945,19.794,249.097,21.146,251.344,23.849z
		 M234.383,34.918c0,7.343,2.484,11.015,7.453,11.015c4.968,0,7.452-3.69,7.452-11.07c0-7.343-2.466-11.015-7.397-11.015
		C236.885,23.849,234.383,27.54,234.383,34.918z"/>
	<path id="XMLID_96_" style="fill:#F0494F;" d="M297.731,22.178c1.425,1.589,2.137,3.736,2.137,6.439v20.714h-5.041V29.329
		c0-3.727-1.353-5.59-4.056-5.59c-1.425,0-2.63,0.411-3.616,1.233c-0.986,0.822-2.047,2.109-3.179,3.863v20.495h-5.042V29.329
		c0-3.727-1.352-5.59-4.055-5.59c-1.462,0-2.686,0.42-3.672,1.261c-0.986,0.841-2.027,2.119-3.123,3.836v20.495h-5.042V20.452h4.329
		l0.438,4.219c2.155-3.251,4.932-4.877,8.329-4.877c1.79,0,3.315,0.457,4.576,1.37c1.261,0.914,2.165,2.192,2.713,3.836
		c1.132-1.68,2.384-2.968,3.754-3.864c1.37-0.895,2.986-1.342,4.85-1.342C294.406,19.794,296.307,20.588,297.731,22.178z"/>
</g>
<g id="where_operators_meet_affiliates">
	<path id="XMLID_3_" style="fill:#F0494F;" d="M14.515,71.91L11.75,83.207h-1.685L7.56,73.076L5.011,83.207H3.348L0.519,71.91h1.296
		l2.419,10.325L6.869,71.91h1.426l2.592,10.347l2.398-10.347H14.515z"/>
	<path id="XMLID_5_" style="fill:#F0494F;" d="M24.667,72.591c0.547,0.612,0.821,1.458,0.821,2.538v8.078h-1.252v-7.905
		c0-1.742-0.713-2.614-2.139-2.614c-0.72,0-1.357,0.198-1.912,0.595c-0.555,0.396-1.083,0.976-1.587,1.738v8.187h-1.253V67.31
		l1.253-0.151v6.631c1.008-1.411,2.253-2.116,3.737-2.116C23.342,71.673,24.12,71.979,24.667,72.591z"/>
	<path id="XMLID_7_" style="fill:#F0494F;" d="M37.93,78.045h-7.539c0.072,1.469,0.421,2.56,1.047,3.272
		c0.626,0.713,1.451,1.069,2.474,1.069c0.59,0,1.112-0.09,1.566-0.271c0.454-0.18,0.947-0.465,1.479-0.854l0.583,0.8
		c-0.562,0.461-1.138,0.807-1.728,1.036c-0.59,0.23-1.246,0.346-1.965,0.346c-1.498,0-2.671-0.511-3.521-1.533
		s-1.274-2.44-1.274-4.255c0-1.195,0.184-2.243,0.551-3.144c0.367-0.899,0.893-1.598,1.577-2.095
		c0.684-0.497,1.479-0.745,2.387-0.745c1.439,0,2.534,0.485,3.283,1.458c0.749,0.972,1.123,2.308,1.123,4.007
		C37.973,77.454,37.958,77.757,37.93,78.045z M36.742,76.749c0-1.268-0.263-2.258-0.789-2.971c-0.526-0.713-1.307-1.069-2.344-1.069
		c-0.936,0-1.692,0.36-2.268,1.08c-0.576,0.721-0.893,1.814-0.95,3.283h6.351V76.749z"/>
	<path id="XMLID_10_" style="fill:#F0494F;" d="M47.044,71.802l-0.237,1.188c-0.317-0.086-0.648-0.13-0.994-0.13
		c-0.764,0-1.379,0.277-1.847,0.832c-0.468,0.555-0.861,1.422-1.177,2.603v6.912h-1.253V71.91h1.08l0.108,2.527
		c0.302-0.936,0.716-1.631,1.242-2.084c0.525-0.454,1.177-0.681,1.955-0.681C46.368,71.673,46.742,71.716,47.044,71.802z"/>
	<path id="XMLID_12_" style="fill:#F0494F;" d="M56.916,78.045h-7.539c0.072,1.469,0.421,2.56,1.048,3.272s1.451,1.069,2.473,1.069
		c0.59,0,1.112-0.09,1.566-0.271c0.454-0.18,0.947-0.465,1.479-0.854l0.583,0.8c-0.562,0.461-1.138,0.807-1.728,1.036
		c-0.591,0.23-1.246,0.346-1.966,0.346c-1.498,0-2.671-0.511-3.521-1.533c-0.85-1.022-1.274-2.44-1.274-4.255
		c0-1.195,0.184-2.243,0.551-3.144c0.367-0.899,0.893-1.598,1.577-2.095c0.684-0.497,1.479-0.745,2.387-0.745
		c1.44,0,2.534,0.485,3.283,1.458c0.749,0.972,1.123,2.308,1.123,4.007C56.958,77.454,56.944,77.757,56.916,78.045z M55.728,76.749
		c0-1.268-0.263-2.258-0.789-2.971s-1.307-1.069-2.343-1.069c-0.937,0-1.692,0.36-2.268,1.08c-0.576,0.721-0.893,1.814-0.951,3.283
		h6.351V76.749z"/>
	<path id="XMLID_15_" style="fill:#F0494F;" d="M73.947,73.217c0.842,1.03,1.264,2.467,1.264,4.31c0,1.829-0.429,3.272-1.285,4.331
		c-0.857,1.058-2.027,1.587-3.51,1.587c-1.498,0-2.667-0.521-3.51-1.565s-1.264-2.48-1.264-4.31c0-1.195,0.194-2.239,0.583-3.132
		c0.389-0.893,0.943-1.577,1.664-2.052c0.72-0.476,1.569-0.713,2.549-0.713C71.935,71.673,73.104,72.188,73.947,73.217z
		 M67.888,73.962c-0.605,0.821-0.907,2.023-0.907,3.607c0,1.569,0.298,2.765,0.896,3.586c0.597,0.82,1.443,1.231,2.538,1.231
		s1.948-0.411,2.56-1.231c0.612-0.821,0.918-2.03,0.918-3.629c0-1.569-0.299-2.761-0.896-3.575c-0.598-0.813-1.451-1.22-2.56-1.22
		C69.342,72.731,68.493,73.142,67.888,73.962z"/>
	<path id="XMLID_18_" style="fill:#F0494F;" d="M86.626,73.195c0.684,1.016,1.026,2.452,1.026,4.31c0,1.814-0.371,3.258-1.112,4.33
		c-0.742,1.073-1.804,1.609-3.186,1.609c-0.677,0-1.289-0.14-1.836-0.421s-1.008-0.659-1.382-1.134v5.572l-1.253,0.173V71.91h1.08
		l0.108,1.642c0.417-0.59,0.925-1.051,1.523-1.383c0.597-0.331,1.249-0.496,1.955-0.496C84.916,71.673,85.942,72.181,86.626,73.195z
		 M85.492,81.155c0.547-0.821,0.821-2.038,0.821-3.65c0-3.197-1.001-4.796-3.002-4.796c-0.677,0-1.264,0.173-1.761,0.519
		c-0.497,0.346-0.968,0.821-1.415,1.426v6.005c0.749,1.152,1.742,1.729,2.981,1.729C84.153,82.387,84.945,81.976,85.492,81.155z"/>
	<path id="XMLID_21_" style="fill:#F0494F;" d="M99.402,78.045h-7.539c0.072,1.469,0.421,2.56,1.048,3.272s1.45,1.069,2.473,1.069
		c0.59,0,1.112-0.09,1.566-0.271c0.454-0.18,0.947-0.465,1.479-0.854l0.583,0.8c-0.562,0.461-1.138,0.807-1.728,1.036
		c-0.591,0.23-1.246,0.346-1.966,0.346c-1.498,0-2.671-0.511-3.521-1.533s-1.274-2.44-1.274-4.255c0-1.195,0.184-2.243,0.551-3.144
		c0.367-0.899,0.893-1.598,1.577-2.095c0.684-0.497,1.479-0.745,2.387-0.745c1.44,0,2.534,0.485,3.283,1.458
		c0.749,0.972,1.123,2.308,1.123,4.007C99.445,77.454,99.431,77.757,99.402,78.045z M98.214,76.749c0-1.268-0.263-2.258-0.789-2.971
		c-0.526-0.713-1.307-1.069-2.344-1.069c-0.936,0-1.692,0.36-2.268,1.08c-0.576,0.721-0.893,1.814-0.951,3.283h6.351V76.749z"/>
	<path id="XMLID_24_" style="fill:#F0494F;" d="M108.518,71.802l-0.238,1.188c-0.317-0.086-0.648-0.13-0.994-0.13
		c-0.763,0-1.379,0.277-1.847,0.832c-0.468,0.555-0.861,1.422-1.177,2.603v6.912h-1.253V71.91h1.08l0.108,2.527
		c0.303-0.936,0.716-1.631,1.242-2.084c0.525-0.454,1.177-0.681,1.955-0.681C107.84,71.673,108.215,71.716,108.518,71.802z"/>
	<path id="XMLID_26_" style="fill:#F0494F;" d="M117.557,81.976c0.151,0.26,0.392,0.454,0.724,0.583L118,83.444
		c-0.518-0.101-0.918-0.295-1.199-0.583s-0.464-0.727-0.551-1.317c-0.777,1.268-1.951,1.9-3.521,1.9c-1.08,0-1.934-0.306-2.56-0.918
		c-0.626-0.611-0.94-1.429-0.94-2.451c0-1.167,0.414-2.066,1.242-2.7c0.828-0.634,1.977-0.95,3.445-0.95h2.16v-1.102
		c0-0.907-0.202-1.566-0.604-1.977c-0.403-0.41-1.073-0.615-2.009-0.615c-0.864,0-1.887,0.216-3.067,0.647l-0.324-0.95
		c1.267-0.504,2.455-0.756,3.564-0.756c2.462,0,3.693,1.195,3.693,3.585v5.443C117.33,81.292,117.406,81.717,117.557,81.976z
		 M116.077,80.442v-3.11h-1.965c-1.152,0-2.03,0.224-2.635,0.669c-0.605,0.447-0.907,1.116-0.907,2.009
		c0,0.778,0.208,1.376,0.626,1.793c0.417,0.418,1,0.627,1.75,0.627C114.299,82.43,115.343,81.768,116.077,80.442z"/>
	<path id="XMLID_29_" style="fill:#F0494F;" d="M127.028,82.731c-0.72,0.476-1.512,0.713-2.376,0.713
		c-0.864,0-1.541-0.255-2.03-0.767c-0.49-0.511-0.734-1.249-0.734-2.214v-7.538h-1.901V71.91h1.901v-2.7l1.253-0.151v2.852h2.916
		l-0.151,1.016h-2.765v7.474c0,0.662,0.137,1.155,0.41,1.479c0.273,0.323,0.691,0.485,1.253,0.485c0.576,0,1.152-0.165,1.728-0.496
		L127.028,82.731z"/>
	<path id="XMLID_31_" style="fill:#F0494F;" d="M136.392,73.217c0.842,1.03,1.263,2.467,1.263,4.31c0,1.829-0.428,3.272-1.285,4.331
		c-0.857,1.058-2.027,1.587-3.51,1.587c-1.498,0-2.667-0.521-3.51-1.565c-0.842-1.044-1.263-2.48-1.263-4.31
		c0-1.195,0.194-2.239,0.583-3.132s0.943-1.577,1.663-2.052c0.72-0.476,1.569-0.713,2.549-0.713
		C134.379,71.673,135.549,72.188,136.392,73.217z M130.333,73.962c-0.604,0.821-0.907,2.023-0.907,3.607
		c0,1.569,0.299,2.765,0.896,3.586c0.598,0.82,1.443,1.231,2.538,1.231c1.094,0,1.947-0.411,2.56-1.231
		c0.612-0.821,0.918-2.03,0.918-3.629c0-1.569-0.299-2.761-0.896-3.575c-0.598-0.813-1.451-1.22-2.56-1.22
		C131.788,72.731,130.938,73.142,130.333,73.962z"/>
	<path id="XMLID_34_" style="fill:#F0494F;" d="M146.835,71.802l-0.238,1.188c-0.317-0.086-0.648-0.13-0.993-0.13
		c-0.764,0-1.379,0.277-1.847,0.832s-0.86,1.422-1.177,2.603v6.912h-1.252V71.91h1.08l0.108,2.527
		c0.302-0.936,0.716-1.631,1.242-2.084c0.526-0.454,1.177-0.681,1.955-0.681C146.159,71.673,146.533,71.716,146.835,71.802z"/>
	<path id="XMLID_36_" style="fill:#F0494F;" d="M153.683,71.985c0.576,0.209,1.138,0.522,1.685,0.94l-0.583,0.82
		c-0.519-0.359-1.008-0.622-1.469-0.788s-0.965-0.249-1.512-0.249c-0.749,0-1.354,0.173-1.815,0.519s-0.691,0.807-0.691,1.383
		c0,0.547,0.198,0.972,0.594,1.274s1.112,0.591,2.149,0.864c1.281,0.331,2.207,0.748,2.775,1.252
		c0.569,0.505,0.854,1.225,0.854,2.16c0,1.009-0.389,1.808-1.167,2.397c-0.777,0.591-1.749,0.886-2.916,0.886
		c-0.863,0-1.62-0.126-2.268-0.378s-1.239-0.608-1.771-1.069l0.691-0.799c0.504,0.403,1.019,0.702,1.544,0.896
		c0.525,0.194,1.12,0.292,1.782,0.292c0.835,0,1.509-0.191,2.02-0.573c0.512-0.381,0.768-0.91,0.768-1.587
		c0-0.461-0.087-0.835-0.26-1.123s-0.468-0.537-0.886-0.746c-0.417-0.208-1.029-0.421-1.836-0.637
		c-1.195-0.316-2.055-0.713-2.581-1.188c-0.526-0.475-0.788-1.108-0.788-1.9c0-0.562,0.165-1.069,0.497-1.522
		c0.331-0.454,0.781-0.807,1.35-1.059s1.206-0.378,1.911-0.378C152.466,71.673,153.106,71.777,153.683,71.985z"/>
	<path id="XMLID_38_" style="fill:#F0494F;" d="M178.209,72.602c0.525,0.619,0.788,1.462,0.788,2.527v8.078h-1.253v-7.905
		c0-0.893-0.169-1.552-0.507-1.977c-0.339-0.425-0.811-0.638-1.415-0.638c-0.634,0-1.202,0.202-1.706,0.605
		c-0.505,0.403-0.994,0.979-1.469,1.728v8.187h-1.253v-7.905c0-0.893-0.17-1.552-0.508-1.977c-0.339-0.425-0.811-0.638-1.415-0.638
		c-0.647,0-1.224,0.202-1.728,0.605c-0.505,0.403-0.987,0.979-1.447,1.728v8.187h-1.253V71.91h1.08l0.107,1.923
		c0.433-0.677,0.943-1.206,1.534-1.588c0.59-0.382,1.238-0.572,1.943-0.572c0.721,0,1.325,0.198,1.814,0.594
		c0.489,0.396,0.821,0.947,0.994,1.652c0.446-0.705,0.968-1.256,1.565-1.652c0.598-0.396,1.257-0.594,1.977-0.594
		C176.967,71.673,177.684,71.982,178.209,72.602z"/>
	<path id="XMLID_40_" style="fill:#F0494F;" d="M191.438,78.045H183.9c0.072,1.469,0.421,2.56,1.048,3.272
		c0.626,0.713,1.45,1.069,2.473,1.069c0.591,0,1.113-0.09,1.566-0.271c0.453-0.18,0.946-0.465,1.479-0.854l0.583,0.8
		c-0.562,0.461-1.138,0.807-1.728,1.036c-0.591,0.23-1.246,0.346-1.966,0.346c-1.498,0-2.671-0.511-3.521-1.533
		s-1.274-2.44-1.274-4.255c0-1.195,0.184-2.243,0.551-3.144c0.367-0.899,0.893-1.598,1.576-2.095
		c0.685-0.497,1.48-0.745,2.388-0.745c1.439,0,2.534,0.485,3.283,1.458c0.748,0.972,1.123,2.308,1.123,4.007
		C191.482,77.454,191.468,77.757,191.438,78.045z M190.251,76.749c0-1.268-0.263-2.258-0.788-2.971
		c-0.526-0.713-1.308-1.069-2.344-1.069c-0.937,0-1.692,0.36-2.269,1.08c-0.576,0.721-0.893,1.814-0.95,3.283h6.351V76.749z"/>
	<path id="XMLID_43_" style="fill:#F0494F;" d="M203.017,78.045h-7.539c0.072,1.469,0.422,2.56,1.048,3.272
		c0.627,0.713,1.451,1.069,2.474,1.069c0.59,0,1.112-0.09,1.565-0.271c0.454-0.18,0.947-0.465,1.479-0.854l0.584,0.8
		c-0.562,0.461-1.138,0.807-1.729,1.036c-0.591,0.23-1.245,0.346-1.966,0.346c-1.497,0-2.671-0.511-3.521-1.533
		s-1.274-2.44-1.274-4.255c0-1.195,0.184-2.243,0.551-3.144c0.367-0.899,0.893-1.598,1.577-2.095
		c0.684-0.497,1.479-0.745,2.387-0.745c1.439,0,2.534,0.485,3.283,1.458c0.748,0.972,1.123,2.308,1.123,4.007
		C203.06,77.454,203.045,77.757,203.017,78.045z M201.828,76.749c0-1.268-0.263-2.258-0.788-2.971s-1.307-1.069-2.344-1.069
		c-0.937,0-1.692,0.36-2.268,1.08c-0.576,0.721-0.894,1.814-0.951,3.283h6.351V76.749z"/>
	<path id="XMLID_46_" style="fill:#F0494F;" d="M211.765,82.731c-0.721,0.476-1.513,0.713-2.376,0.713
		c-0.864,0-1.541-0.255-2.031-0.767c-0.489-0.511-0.734-1.249-0.734-2.214v-7.538h-1.9V71.91h1.9v-2.7l1.253-0.151v2.852h2.916
		l-0.151,1.016h-2.765v7.474c0,0.662,0.137,1.155,0.411,1.479c0.273,0.323,0.69,0.485,1.252,0.485c0.576,0,1.152-0.165,1.729-0.496
		L211.765,82.731z"/>
	<path id="XMLID_48_" style="fill:#F0494F;" d="M227.262,81.976c0.151,0.26,0.393,0.454,0.724,0.583l-0.28,0.886
		c-0.519-0.101-0.918-0.295-1.199-0.583s-0.465-0.727-0.551-1.317c-0.777,1.268-1.951,1.9-3.521,1.9c-1.08,0-1.934-0.306-2.56-0.918
		c-0.627-0.611-0.939-1.429-0.939-2.451c0-1.167,0.413-2.066,1.241-2.7s1.977-0.95,3.445-0.95h2.16v-1.102
		c0-0.907-0.202-1.566-0.604-1.977c-0.403-0.41-1.073-0.615-2.009-0.615c-0.864,0-1.887,0.216-3.067,0.647l-0.324-0.95
		c1.268-0.504,2.455-0.756,3.564-0.756c2.462,0,3.693,1.195,3.693,3.585v5.443C227.035,81.292,227.11,81.717,227.262,81.976z
		 M225.782,80.442v-3.11h-1.966c-1.152,0-2.03,0.224-2.635,0.669c-0.605,0.447-0.907,1.116-0.907,2.009
		c0,0.778,0.208,1.376,0.626,1.793c0.418,0.418,1.001,0.627,1.75,0.627C224.004,82.43,225.048,81.768,225.782,80.442z"/>
	<path id="XMLID_51_" style="fill:#F0494F;" d="M233.461,68.648c-0.324,0.303-0.486,0.785-0.486,1.447v1.814h2.981l-0.173,1.016
		h-2.809v10.281h-1.253V72.926h-1.965V71.91h1.965v-1.857c0-0.893,0.277-1.599,0.832-2.117s1.321-0.777,2.301-0.777
		c0.878,0,1.757,0.202,2.635,0.604l-0.432,0.929c-0.749-0.331-1.462-0.496-2.139-0.496
		C234.271,68.195,233.785,68.347,233.461,68.648z"/>
	<path id="XMLID_53_" style="fill:#F0494F;" d="M245.027,67.957l-0.453,0.907c-0.922-0.432-1.814-0.647-2.679-0.647
		c-0.734,0-1.267,0.147-1.599,0.442c-0.331,0.296-0.496,0.789-0.496,1.479v1.771h6.307v11.297h-1.253V72.926h-5.054v10.281h-1.253
		V72.926h-1.857V71.91h1.857v-1.836c0-0.921,0.284-1.638,0.854-2.149c0.568-0.511,1.386-0.767,2.451-0.767
		C242.976,67.158,244.034,67.425,245.027,67.957z"/>
	<path id="XMLID_55_" style="fill:#F0494F;" d="M251.107,82.904c-0.353-0.359-0.528-0.893-0.528-1.598V67.31l1.252-0.151v14.104
		c0,0.734,0.303,1.102,0.907,1.102c0.303,0,0.562-0.05,0.778-0.15l0.346,0.929c-0.403,0.201-0.836,0.302-1.297,0.302
		C251.946,83.444,251.461,83.265,251.107,82.904z"/>
	<path id="XMLID_57_" style="fill:#F0494F;" d="M258.117,67.201c0.173,0.173,0.259,0.389,0.259,0.648
		c0,0.259-0.086,0.475-0.259,0.647s-0.403,0.26-0.691,0.26c-0.273,0-0.497-0.087-0.67-0.26s-0.259-0.389-0.259-0.647
		c0-0.26,0.086-0.476,0.259-0.648s0.396-0.259,0.67-0.259C257.714,66.942,257.944,67.028,258.117,67.201z M258.074,71.91v11.297
		h-1.253V71.91H258.074z"/>
	<path id="XMLID_60_" style="fill:#F0494F;" d="M269.899,81.976c0.151,0.26,0.393,0.454,0.724,0.583l-0.28,0.886
		c-0.519-0.101-0.918-0.295-1.199-0.583s-0.465-0.727-0.551-1.317c-0.777,1.268-1.951,1.9-3.521,1.9c-1.08,0-1.934-0.306-2.56-0.918
		c-0.627-0.611-0.939-1.429-0.939-2.451c0-1.167,0.413-2.066,1.241-2.7s1.977-0.95,3.445-0.95h2.16v-1.102
		c0-0.907-0.202-1.566-0.604-1.977c-0.403-0.41-1.073-0.615-2.009-0.615c-0.864,0-1.887,0.216-3.067,0.647l-0.324-0.95
		c1.268-0.504,2.455-0.756,3.564-0.756c2.462,0,3.693,1.195,3.693,3.585v5.443C269.673,81.292,269.748,81.717,269.899,81.976z
		 M268.42,80.442v-3.11h-1.966c-1.152,0-2.03,0.224-2.635,0.669c-0.604,0.447-0.907,1.116-0.907,2.009
		c0,0.778,0.208,1.376,0.626,1.793c0.418,0.418,1.001,0.627,1.75,0.627C266.642,82.43,267.686,81.768,268.42,80.442z"/>
	<path id="XMLID_63_" style="fill:#F0494F;" d="M279.371,82.731c-0.721,0.476-1.512,0.713-2.376,0.713s-1.541-0.255-2.03-0.767
		c-0.49-0.511-0.734-1.249-0.734-2.214v-7.538h-1.901V71.91h1.901v-2.7l1.253-0.151v2.852h2.916l-0.151,1.016h-2.765v7.474
		c0,0.662,0.137,1.155,0.41,1.479c0.273,0.323,0.691,0.485,1.253,0.485c0.575,0,1.151-0.165,1.728-0.496L279.371,82.731z"/>
	<path id="XMLID_65_" style="fill:#F0494F;" d="M289.307,78.045h-7.538c0.072,1.469,0.421,2.56,1.048,3.272
		c0.626,0.713,1.45,1.069,2.473,1.069c0.591,0,1.112-0.09,1.566-0.271c0.453-0.18,0.946-0.465,1.479-0.854l0.583,0.8
		c-0.562,0.461-1.138,0.807-1.728,1.036c-0.591,0.23-1.246,0.346-1.966,0.346c-1.498,0-2.671-0.511-3.521-1.533
		c-0.851-1.022-1.274-2.44-1.274-4.255c0-1.195,0.184-2.243,0.551-3.144c0.367-0.899,0.893-1.598,1.576-2.095
		c0.685-0.497,1.479-0.745,2.387-0.745c1.44,0,2.535,0.485,3.283,1.458c0.749,0.972,1.124,2.308,1.124,4.007
		C289.351,77.454,289.336,77.757,289.307,78.045z M288.119,76.749c0-1.268-0.263-2.258-0.789-2.971
		c-0.525-0.713-1.307-1.069-2.343-1.069c-0.937,0-1.692,0.36-2.269,1.08c-0.576,0.721-0.893,1.814-0.95,3.283h6.351V76.749z"/>
	<path id="XMLID_68_" style="fill:#F0494F;" d="M297.602,71.985c0.575,0.209,1.137,0.522,1.685,0.94l-0.583,0.82
		c-0.519-0.359-1.009-0.622-1.469-0.788c-0.461-0.166-0.965-0.249-1.513-0.249c-0.748,0-1.354,0.173-1.814,0.519
		s-0.69,0.807-0.69,1.383c0,0.547,0.197,0.972,0.594,1.274c0.396,0.303,1.112,0.591,2.149,0.864
		c1.281,0.331,2.206,0.748,2.775,1.252c0.568,0.505,0.854,1.225,0.854,2.16c0,1.009-0.39,1.808-1.167,2.397
		c-0.777,0.591-1.749,0.886-2.916,0.886c-0.864,0-1.62-0.126-2.268-0.378c-0.648-0.252-1.239-0.608-1.771-1.069l0.691-0.799
		c0.504,0.403,1.019,0.702,1.544,0.896s1.12,0.292,1.782,0.292c0.835,0,1.509-0.191,2.02-0.573c0.511-0.381,0.767-0.91,0.767-1.587
		c0-0.461-0.086-0.835-0.259-1.123s-0.468-0.537-0.886-0.746c-0.418-0.208-1.029-0.421-1.836-0.637
		c-1.195-0.316-2.056-0.713-2.581-1.188c-0.526-0.475-0.788-1.108-0.788-1.9c0-0.562,0.165-1.069,0.496-1.522
		c0.331-0.454,0.781-0.807,1.351-1.059c0.568-0.252,1.206-0.378,1.911-0.378S297.025,71.777,297.602,71.985z"/>
</g>
<g id="XMLID_1_">
</g>
<g id="XMLID_98_">
</g>
<g id="XMLID_99_">
</g>
<g id="XMLID_100_">
</g>
<g id="XMLID_101_">
</g>
<g id="XMLID_102_">
</g>
</svg>
