<svg width="24" height="24" viewBox="0 0 24 24" fill="none" xmlns="http://www.w3.org/2000/svg">
<g clip-path="url(#clip0_2580_22)">
<path fill-rule="evenodd" clip-rule="evenodd" d="M12.8439 6.00486C13.2197 5.79165 13.5145 5.46001 13.682 5.06168C13.8495 4.66336 13.8805 4.22077 13.77 3.803C13.6596 3.38523 13.4139 3.01579 13.0714 2.75234C12.7289 2.48888 12.3087 2.34624 11.8766 2.34668C11.4445 2.34712 11.0247 2.49061 10.6827 2.75476C10.3407 3.01891 10.0958 3.38885 9.98615 3.80684C9.87654 4.22484 9.90839 4.66736 10.0767 5.06534C10.2451 5.46333 10.5405 5.79437 10.9168 6.00681L10.907 6.02442C10.2663 7.36165 9.37609 9.277 8.00169 9.996C6.87282 10.5859 5.25289 10.2895 4.04968 10.0684C4.03038 9.79479 3.93478 9.53208 3.77373 9.31006C3.61268 9.08805 3.39263 8.91561 3.13854 8.81233C2.88445 8.70904 2.6065 8.67904 2.33623 8.72573C2.06595 8.77241 1.81417 8.89391 1.60945 9.07645C1.40474 9.25898 1.25528 9.49524 1.17804 9.75842C1.1008 10.0216 1.09887 10.3012 1.17246 10.5654C1.24606 10.8296 1.39224 11.0679 1.59441 11.2532C1.79659 11.4386 2.04667 11.5636 2.31627 11.614L5.20006 19.0582C5.41393 19.6101 5.78967 20.0844 6.27796 20.4189C6.76625 20.7534 7.34427 20.9324 7.93615 20.9325H15.8206C16.4125 20.9324 16.9905 20.7534 17.4788 20.4189C17.9671 20.0844 18.3428 19.6101 18.5567 19.0582L21.4395 11.614C21.7074 11.5641 21.9561 11.4406 22.1578 11.2574C22.3595 11.0741 22.5062 10.8383 22.5814 10.5764C22.6566 10.3145 22.6574 10.0368 22.5836 9.77443C22.5099 9.51209 22.3646 9.27546 22.164 9.09106C21.9633 8.90666 21.7153 8.78177 21.4477 8.7304C21.1801 8.67902 20.9034 8.70318 20.6488 8.80018C20.3941 8.89717 20.1715 9.06317 20.0058 9.27956C19.8402 9.49595 19.7381 9.75419 19.711 10.0253C18.4794 10.1848 16.8918 10.3883 15.7551 9.79448C14.4081 9.09017 13.5052 7.30687 12.8439 6.00486ZM11.9028 8.32031C12.6541 9.53917 13.555 10.851 14.8492 11.5289C16.1473 12.2068 17.7448 12.1725 19.173 12.0503L16.7323 18.351C16.6611 18.535 16.5359 18.6931 16.3732 18.8046C16.2105 18.9162 16.0179 18.976 15.8206 18.9761H7.93615C7.73887 18.976 7.54624 18.9162 7.38354 18.8046C7.22084 18.6931 7.09566 18.535 7.02445 18.351L4.61704 12.1363C6.0247 12.3163 7.61725 12.4044 8.90752 11.7294C10.2555 11.0251 11.1574 9.60471 11.9028 8.32031Z" fill="black"/>
</g>
<defs>
<clipPath id="clip0_2580_22">
<rect width="23.4773" height="23.4773" fill="white" transform="translate(0.140137 0.390625)"/>
</clipPath>
</defs>
</svg>
