<svg width="24" height="25" viewBox="0 0 24 25" fill="none" xmlns="http://www.w3.org/2000/svg">
<path d="M12.0061 23.1788C13.9731 23.1788 15.8594 22.3974 17.2503 21.0066C18.6411 19.6157 19.4225 17.7294 19.4225 15.7624C19.4225 14.9061 19.1951 14.0843 18.9281 13.3199C17.2797 14.9486 16.0278 15.7624 15.1704 15.7624C19.1209 8.84043 16.9504 5.87387 11.0172 1.91846C11.5117 6.86272 8.25241 9.11138 6.92537 10.3603C5.8429 11.3785 5.09128 12.6984 4.76797 14.1489C4.44466 15.5994 4.56457 17.1136 5.11216 18.4951C5.65974 19.8767 6.60974 21.0618 7.83898 21.897C9.06822 22.7321 10.52 23.1787 12.0061 23.1788ZM12.7082 5.61182C15.9131 8.33117 15.9289 10.4444 13.4528 14.7825C12.7003 16.1006 13.6525 17.7401 15.1704 17.7401C15.8508 17.7401 16.539 17.5423 17.2658 17.1517C17.0504 17.9656 16.649 18.7182 16.0932 19.3505C15.5374 19.9828 14.8424 20.4775 14.063 20.7955C13.2835 21.1136 12.4409 21.2464 11.6014 21.1834C10.7619 21.1204 9.94853 20.8634 9.22525 20.4327C8.50197 20.0019 7.88857 19.4091 7.43333 18.701C6.97809 17.9928 6.69346 17.1887 6.60184 16.3519C6.51021 15.515 6.61411 14.6683 6.90533 13.8785C7.19656 13.0886 7.66717 12.3771 8.2801 11.8001C8.4047 11.6834 9.03657 11.1227 9.06426 11.098C9.48354 10.7222 9.82865 10.389 10.1698 10.0241C11.3861 8.72078 12.2602 7.27508 12.7072 5.61182" fill="black"/>
</svg>
