<svg width="33" height="33" viewBox="0 0 33 33" fill="none" xmlns="http://www.w3.org/2000/svg">
<g clip-path="url(#clip0_2517_2022)">
<path d="M2.27336 15.6889C3.12794 16.1062 4.20908 16.4439 5.39992 16.6658C5.42982 16.6714 5.4596 16.674 5.48899 16.674C5.71728 16.674 5.92038 16.5116 5.96369 16.2791C6.01261 16.0167 5.83949 15.7643 5.57697 15.7153C4.47057 15.5092 3.47483 15.1996 2.69753 14.8201C2.45763 14.7029 2.16824 14.8026 2.05106 15.0424C1.93395 15.2823 2.03347 15.5719 2.27336 15.6889Z" fill="#0E0D14"/>
<path d="M5.57697 19.719C4.47057 19.5128 3.47483 19.2033 2.69753 18.8238C2.45763 18.7067 2.16824 18.8062 2.05106 19.0461C1.93395 19.286 2.03347 19.5754 2.27336 19.6925C3.12794 20.1097 4.20908 20.4475 5.39992 20.6693C5.42982 20.6749 5.4596 20.6776 5.48899 20.6776C5.71728 20.6776 5.92038 20.5151 5.96369 20.2827C6.01254 20.0203 5.83942 19.7679 5.57697 19.719Z" fill="#0E0D14"/>
<path d="M2.69753 22.8277C2.45763 22.7105 2.16824 22.8101 2.05106 23.05C1.93395 23.2899 2.03347 23.5794 2.27336 23.6964C3.12794 24.1137 4.20908 24.4514 5.39992 24.6733C5.42982 24.6789 5.4596 24.6815 5.48899 24.6815C5.71728 24.6815 5.92038 24.5191 5.96369 24.2866C6.01261 24.0241 5.83949 23.7717 5.57697 23.7228C4.47063 23.5167 3.4749 23.2071 2.69753 22.8277Z" fill="#0E0D14"/>
<path d="M15.4995 15.7378C15.7665 15.7378 15.9829 15.5214 15.9829 15.2544C15.9829 14.9874 15.7665 14.771 15.4995 14.771C15.2325 14.771 15.0161 14.9874 15.0161 15.2544C15.0161 15.5214 15.2325 15.7378 15.4995 15.7378Z" fill="#0E0D14"/>
<path d="M13.4971 16.4529C13.764 16.4529 13.9805 16.2365 13.9805 15.9695C13.9805 15.7025 13.764 15.4861 13.4971 15.4861C13.2301 15.4861 13.0137 15.7025 13.0137 15.9695C13.0137 16.2365 13.2301 16.4529 13.4971 16.4529Z" fill="#0E0D14"/>
<path d="M15.4995 19.7417C15.7665 19.7417 15.9829 19.5253 15.9829 19.2583C15.9829 18.9913 15.7665 18.7749 15.4995 18.7749C15.2325 18.7749 15.0161 18.9913 15.0161 19.2583C15.0161 19.5253 15.2325 19.7417 15.4995 19.7417Z" fill="#0E0D14"/>
<path d="M13.4971 20.4565C13.764 20.4565 13.9805 20.2401 13.9805 19.9731C13.9805 19.7062 13.764 19.4897 13.4971 19.4897C13.2301 19.4897 13.0137 19.7062 13.0137 19.9731C13.0137 20.2401 13.2301 20.4565 13.4971 20.4565Z" fill="#0E0D14"/>
<path d="M15.4995 23.7456C15.7665 23.7456 15.9829 23.5292 15.9829 23.2622C15.9829 22.9952 15.7665 22.7788 15.4995 22.7788C15.2325 22.7788 15.0161 22.9952 15.0161 23.2622C15.0161 23.5292 15.2325 23.7456 15.4995 23.7456Z" fill="#0E0D14"/>
<path d="M13.4971 24.4604C13.764 24.4604 13.9805 24.244 13.9805 23.9771C13.9805 23.7101 13.764 23.4937 13.4971 23.4937C13.2301 23.4937 13.0137 23.7101 13.0137 23.9771C13.0137 24.244 13.2301 24.4604 13.4971 24.4604Z" fill="#0E0D14"/>
<path d="M32.0332 1.50157L28.7127 1.50164L27.9948 0.783566C27.8122 0.601035 27.5694 0.500488 27.3112 0.500488H25.9928C25.4597 0.500488 25.026 0.934193 25.026 1.46729V3.50362H22.7601C21.2496 3.50362 20.0208 4.73242 20.0208 6.24288V8.58555C20.0208 8.85258 20.2373 9.06895 20.5042 9.06895C20.7712 9.06895 20.9876 8.85258 20.9876 8.58555V6.24288C20.9876 5.26557 21.7827 4.47041 22.7601 4.47041H25.026V5.50566H22.8285C22.3842 5.50566 22.0229 5.86705 22.0229 6.31132V15.6771C22.0229 16.1214 22.3842 16.4828 22.8285 16.4828H25.026V17.518H22.8285C22.3842 17.518 22.0229 17.8794 22.0229 18.3237V27.6895C22.0229 28.1338 22.3842 28.4952 22.8285 28.4952H25.026V29.5304H22.7601C21.7827 29.5304 20.9876 28.7353 20.9876 27.758V18.3238C20.9876 17.8796 20.6262 17.5182 20.1819 17.5182H17.9845V16.4829H20.1819C20.6262 16.4829 20.9876 16.1215 20.9876 15.6773V10.8415C20.9876 10.5744 20.7712 10.3581 20.5042 10.3581C20.2373 10.3581 20.0208 10.5744 20.0208 10.8415V15.5161H17.9845V10.9944C17.9845 9.84974 16.9931 8.81114 15.193 8.06993C13.5288 7.38466 11.3267 7.00735 8.99224 7.00735C6.65775 7.00735 4.45564 7.38466 2.79153 8.06993C0.991354 8.81107 0 9.84967 0 10.9943V23.0067C0 24.1514 0.991354 25.1899 2.79153 25.9312C4.45564 26.6164 6.65775 26.9938 8.99224 26.9938C9.83619 26.9938 10.6707 26.9441 11.4728 26.8462C11.7378 26.8138 11.9264 26.5728 11.8941 26.3077C11.8617 26.0427 11.6211 25.8536 11.3556 25.8865C10.5923 25.9796 9.79713 26.027 8.99224 26.027C4.26274 26.027 0.966797 24.4353 0.966797 23.0067V20.8516C1.42377 21.253 2.03653 21.6162 2.79153 21.9271C4.45564 22.6123 6.65775 22.9897 8.99224 22.9897C11.3267 22.9897 13.5288 22.6123 15.193 21.9271C15.948 21.6162 16.5607 21.253 17.0177 20.8516V23.0067C17.0177 23.9269 15.6571 24.8919 13.5516 25.4652C13.294 25.5353 13.142 25.801 13.2121 26.0585C13.2707 26.2737 13.4655 26.4151 13.6782 26.4151C13.7203 26.4151 13.763 26.4095 13.8055 26.3979C16.4613 25.675 17.9845 24.439 17.9845 23.0067V18.485H20.0208V27.7582C20.0208 29.2686 21.2496 30.4974 22.7601 30.4974H25.026V31.5327C25.026 32.0658 25.4597 32.4995 25.9928 32.4995H32.0332C32.5663 32.4995 33 32.0658 33 31.5327V26.4932C33 25.9601 32.5663 25.5264 32.0332 25.5264L28.7127 25.5265L27.9948 24.8084C27.8122 24.6259 27.5694 24.5253 27.3112 24.5253H25.9928C25.4597 24.5253 25.026 24.959 25.026 25.4921V27.5285H22.9897V18.485H25.026V19.5202C25.026 20.0533 25.4597 20.487 25.9928 20.487H27.7438C28.0107 20.487 28.2272 20.2706 28.2272 20.0036C28.2272 19.7366 28.0107 19.5202 27.7438 19.5202H25.9928V16.4829H32.0332V19.5202H29.9996C29.7326 19.5202 29.5162 19.7366 29.5162 20.0036C29.5162 20.2706 29.7326 20.487 29.9996 20.487H32.0332C32.5663 20.487 33 20.0533 33 19.5202V14.4808C33 13.9477 32.5663 13.514 32.0332 13.514L28.7127 13.514L27.9948 12.796C27.8122 12.6134 27.5694 12.5129 27.3112 12.5129H25.9928C25.4597 12.5129 25.026 12.9466 25.026 13.4797V15.516H22.9897V6.47252H25.026V7.50777C25.026 8.04086 25.4597 8.47456 25.9928 8.47456H32.0332C32.5663 8.47456 33 8.04086 33 7.50777V2.46837C33 1.93521 32.5663 1.50157 32.0332 1.50157ZM0.966797 12.8433C1.42377 13.2447 2.03653 13.6079 2.79153 13.9188C4.45564 14.604 6.65775 14.9814 8.99224 14.9814C11.3267 14.9814 13.5288 14.604 15.193 13.9188C15.948 13.6079 16.5607 13.2447 17.0177 12.8433V14.9984C17.0177 16.427 13.7217 18.0187 8.99224 18.0187C4.26274 18.0187 0.966797 16.427 0.966797 14.9984V12.8433ZM8.99224 7.97409C13.7217 7.97409 17.0177 9.56576 17.0177 10.9943C17.0177 12.4228 13.7217 14.0145 8.99224 14.0145C4.26274 14.0145 0.966797 12.4228 0.966797 10.9943C0.966797 9.56576 4.26274 7.97409 8.99224 7.97409ZM8.99224 22.0229C4.26274 22.0229 0.966797 20.4311 0.966797 19.0026V16.8474C1.42377 17.2488 2.03653 17.612 2.79153 17.9229C4.45564 18.6081 6.65775 18.9855 8.99224 18.9855C11.3267 18.9855 13.5288 18.6081 15.193 17.9229C15.948 17.612 16.5607 17.2488 17.0177 16.8474V19.0026C17.0176 20.4311 13.7217 22.0229 8.99224 22.0229ZM25.9927 31.5327V28.4953H32.0332L32.0338 31.5327H25.9927ZM25.9927 25.4923L27.3112 25.4922L28.0291 26.2103C28.2117 26.3928 28.4545 26.4933 28.7126 26.4933H32.0332V27.5286H25.9927V25.4923ZM25.9927 13.4798L27.3112 13.4797L28.0291 14.1978C28.2117 14.3803 28.4545 14.4809 28.7126 14.4809H32.0332V15.5161H25.9927V13.4798ZM25.9927 1.46735L27.3112 1.46729L28.0291 2.18536C28.2117 2.36789 28.4545 2.46844 28.7126 2.46844H32.0332V3.50368H25.9927V1.46735ZM25.9927 7.50777V4.47041H32.0332L32.0338 7.50777H25.9927Z" fill="#0E0D14"/>
</g>
<defs>
<clipPath id="clip0_2517_2022">
<rect width="33" height="33" fill="white"/>
</clipPath>
</defs>
</svg>
