<svg width="30" height="30" viewBox="0 0 30 30" fill="none" xmlns="http://www.w3.org/2000/svg">
<path d="M15.0063 27.5039C8.1026 27.5039 2.50635 21.9077 2.50635 15.0039C2.50635 8.10016 8.1026 2.50391 15.0063 2.50391C21.9101 2.50391 27.5063 8.10016 27.5063 15.0039C27.5063 21.9077 21.9101 27.5039 15.0063 27.5039ZM15.0063 25.0039C17.6585 25.0039 20.2021 23.9503 22.0774 22.075C23.9528 20.1996 25.0063 17.6561 25.0063 15.0039C25.0063 12.3517 23.9528 9.8082 22.0774 7.93284C20.2021 6.05747 17.6585 5.00391 15.0063 5.00391C12.3542 5.00391 9.81064 6.05747 7.93528 7.93284C6.05992 9.8082 5.00635 12.3517 5.00635 15.0039C5.00635 17.6561 6.05992 20.1996 7.93528 22.075C9.81064 23.9503 12.3542 25.0039 15.0063 25.0039ZM8.75635 16.2539H20.0063V18.7539H15.0063V22.5039L8.75635 16.2539ZM15.0063 11.2539V7.50391L21.2563 13.7539H10.0063V11.2539H15.0063Z" fill="black"/>
</svg>
