<svg width="30" height="30" viewBox="0 0 30 30" fill="none" xmlns="http://www.w3.org/2000/svg">
<path fill-rule="evenodd" clip-rule="evenodd" d="M16.883 7.43826L17.213 5.125C17.2659 4.75666 17.4407 4.41668 17.7095 4.15937C17.9783 3.90206 18.3256 3.74226 18.6959 3.7055C19.1181 3.66484 19.5398 3.78761 19.8741 4.0485C20.2085 4.3094 20.4301 4.68858 20.4933 5.10795C20.5565 5.52732 20.4565 5.95496 20.2138 6.30281C19.9712 6.65065 19.6044 6.89223 19.189 6.97778L16.883 7.43826ZM13.647 10.406V14.0318H5.9422C5.7018 14.0318 5.47124 13.9363 5.30125 13.7663C5.13125 13.5963 5.03575 13.3657 5.03575 13.1253V11.3124C5.03575 11.072 5.13125 10.8415 5.30125 10.6715C5.47124 10.5015 5.7018 10.406 5.9422 10.406H13.647ZM15.0067 3.27222C14.7237 2.76268 14.3417 2.31479 13.8833 1.95481C13.4249 1.59483 12.8992 1.33 12.3371 1.17587C11.775 1.02174 11.1878 0.9814 10.6098 1.05722C10.0319 1.13304 9.47498 1.32349 8.97164 1.6174C8.46831 1.91132 8.02872 2.30278 7.67868 2.76882C7.32863 3.23487 7.07517 3.76612 6.93315 4.33142C6.79113 4.89672 6.76342 5.48469 6.85165 6.06084C6.93987 6.63699 7.14224 7.18972 7.44691 7.68663H5.9422C4.98058 7.68663 4.05835 8.06863 3.37838 8.7486C2.69841 9.42856 2.31641 10.3508 2.31641 11.3124V13.1253C2.31642 13.7618 2.48396 14.387 2.80219 14.9382C3.12042 15.4893 3.57813 15.947 4.1293 16.2653V22.1898C4.1293 23.6322 4.70231 25.0156 5.72226 26.0355C6.74221 27.0555 8.12557 27.6285 9.568 27.6285H20.4454C21.8878 27.6285 23.2712 27.0555 24.2911 26.0355C25.3111 25.0156 25.8841 23.6322 25.8841 22.1898V16.2653C26.4353 15.947 26.893 15.4893 27.2112 14.9382C27.5294 14.387 27.697 13.7618 27.697 13.1253V11.3124C27.697 10.3508 27.315 9.42856 26.635 8.7486C25.955 8.06863 25.0328 7.68663 24.0712 7.68663H22.5665C22.8711 7.18972 23.0735 6.63699 23.1617 6.06084C23.25 5.48469 23.2223 4.89672 23.0802 4.33142C22.9382 3.76612 22.6848 3.23487 22.3347 2.76882C21.9847 2.30278 21.5451 1.91132 21.0417 1.6174C20.5384 1.32349 19.9815 1.13304 19.4035 1.05722C18.8256 0.9814 18.2384 1.02174 17.6763 1.17587C17.1142 1.33 16.5885 1.59483 16.1301 1.95481C15.6716 2.31479 15.2897 2.76268 15.0067 3.27222ZM16.3664 10.8592V14.0318H24.0712C24.3116 14.0318 24.5421 13.9363 24.7121 13.7663C24.8821 13.5963 24.9776 13.3657 24.9776 13.1253V11.3124C24.9776 11.072 24.8821 10.8415 24.7121 10.6715C24.5421 10.5015 24.3116 10.406 24.0712 10.406H16.3664V10.8592ZM13.647 16.7511H6.84865V22.1898C6.84865 22.911 7.13515 23.6027 7.64513 24.1127C8.15511 24.6227 8.84678 24.9092 9.568 24.9092H13.647V16.7511ZM16.3664 24.9092V16.7511H23.1647V22.1898C23.1647 22.911 22.8782 23.6027 22.3683 24.1127C21.8583 24.6227 21.1666 24.9092 20.4454 24.9092H16.3664ZM12.8004 5.125L13.1303 7.43826L10.8243 6.97778C10.4089 6.89223 10.0422 6.65065 9.79955 6.30281C9.55693 5.95496 9.45691 5.52732 9.52011 5.10795C9.58331 4.68858 9.8049 4.3094 10.1393 4.0485C10.4736 3.78761 10.8953 3.66484 11.3174 3.7055C11.6876 3.74256 12.0348 3.90246 12.3035 4.15972C12.5723 4.41698 12.7472 4.75679 12.8004 5.125Z" fill="black"/>
</svg>
