<svg width="33" height="33" viewBox="0 0 33 33" fill="none" xmlns="http://www.w3.org/2000/svg">
<g clip-path="url(#clip0_2517_2034)">
<path d="M9.03711 17.6638H23.7041C24.4682 17.6638 25.0899 17.0421 25.0899 16.278V4.25391C25.0899 3.48981 24.4682 2.86816 23.7041 2.86816H22.2841C22.5855 2.50446 22.7538 2.07861 22.7538 1.66405C22.7538 1.17936 22.5317 0.748623 22.1284 0.451043C21.7229 0.151723 21.1593 0 20.4535 0C18.3212 0 17.0949 1.35538 16.4995 2.29891C15.9041 1.35538 14.6779 0 12.5456 0C11.8397 0 11.2761 0.151723 10.8706 0.451043C10.4674 0.748623 10.2453 1.17943 10.2453 1.66405C10.2453 2.07855 10.4135 2.50439 10.715 2.86816H9.03711C8.27302 2.86816 7.65137 3.48981 7.65137 4.25391V4.81252C7.65137 5.07955 7.8678 5.29592 8.13477 5.29592C8.40173 5.29592 8.61816 5.07955 8.61816 4.81252V4.25391C8.61816 4.02291 8.80611 3.83496 9.03711 3.83496H14.5981V8.3733H8.61816V7.06838C8.61816 6.80135 8.40173 6.58498 8.13477 6.58498C7.8678 6.58498 7.65137 6.80135 7.65137 7.06838V16.278C7.65137 17.0421 8.27302 17.6638 9.03711 17.6638ZM8.61816 16.278V12.176H14.5981V16.697H9.03711C8.80611 16.697 8.61816 16.509 8.61816 16.278ZM24.1231 11.2092H18.4009V9.3401H24.1231V11.2092ZM23.7041 16.697H18.4009V12.176H24.1231V16.278C24.1231 16.509 23.9351 16.697 23.7041 16.697ZM24.1231 4.25391V8.3733H18.4009V3.83496H23.7041C23.9351 3.83496 24.1231 4.02291 24.1231 4.25391ZM20.4535 0.966797C21.0698 0.966797 21.3923 1.10937 21.5543 1.22893C21.7108 1.34443 21.7869 1.48674 21.7869 1.66405C21.7869 2.16685 21.1393 2.86816 20.0847 2.86816H17.2871C17.7557 2.11219 18.7474 0.966797 20.4535 0.966797ZM11.2121 1.66405C11.2121 1.48674 11.2882 1.34443 11.4447 1.22893C11.6067 1.10937 11.9293 0.966797 12.5455 0.966797C14.2668 0.966797 15.2527 2.11078 15.7168 2.86816H12.9142C11.8596 2.86816 11.2121 2.16685 11.2121 1.66405ZM17.4341 3.83496V16.697H15.5649V3.83496H17.4341ZM14.5981 9.3401V11.2092H8.61816V9.3401H14.5981Z" fill="#0E0D14"/>
<path d="M32.1239 22.7694H26.8412C26.1715 21.7079 25.2802 21.0238 24.1886 20.7343C21.9967 20.153 19.7665 21.3791 19.3415 21.6308C19.0877 21.7812 18.7803 21.8005 18.5193 21.6826C18.5193 21.6826 14.7673 19.9866 14.7653 19.9857C13.653 19.4829 12.3085 19.9949 11.8092 21.1048C11.3125 22.2088 11.8317 23.5633 12.9293 24.0568L16.3822 25.6093C15.4582 26.1162 14.7171 26.5819 14.3262 26.8358C14.3262 26.8358 7.02016 21.0915 7.01578 21.0881C6.32929 20.5483 5.35766 20.4245 4.55734 20.773C4.55734 20.773 3.53228 20.2372 3.5317 20.2369C2.36967 19.6294 0.877327 20.1066 0.274368 21.2617C-0.342126 22.443 0.115491 23.9056 1.29453 24.5219L8.06366 28.0607C8.06752 28.0627 8.07158 28.064 8.07552 28.0659L13.6945 32.4838C14.1179 32.8167 14.6477 33 15.186 33C15.304 33 15.4227 32.9913 15.5385 32.9742L22.4496 31.9536C22.7137 31.9146 22.8962 31.6688 22.8572 31.4047C22.8182 31.1406 22.5726 30.9578 22.3084 30.9971L15.3971 32.0178C15.3277 32.028 15.2567 32.0332 15.186 32.0332C14.8634 32.0332 14.5458 31.9233 14.292 31.7238L4.63011 24.1272C4.00227 23.6336 3.89277 22.7208 4.38603 22.0924C4.87297 21.4721 5.79871 21.3611 6.41823 21.8481L14.003 27.8115C14.1688 27.9417 14.3997 27.9497 14.5739 27.8311C14.6204 27.7994 19.2641 24.6594 22.3849 24.4178C25.1357 24.2046 27.1455 25.5722 27.5045 27.9013C27.5451 28.1653 27.7923 28.3462 28.0559 28.3055C28.3197 28.2648 28.5007 28.0179 28.46 27.7541C28.2428 26.3443 27.5312 25.1906 26.4022 24.4177C25.3027 23.665 23.8879 23.3314 22.3103 23.4539C20.7901 23.5716 18.9995 24.2819 17.4724 25.0394C17.4724 25.0394 13.3339 23.1787 13.3258 23.1751C12.7048 22.8959 12.413 22.1191 12.6909 21.5015C12.9734 20.8736 13.7399 20.5831 14.3671 20.8667L18.1211 22.5636C18.6691 22.8113 19.3096 22.7735 19.8344 22.4627C20.0592 22.3296 22.0836 21.1766 23.9408 21.669C24.8541 21.9111 25.5965 22.5245 26.1474 23.4922C26.2334 23.6432 26.3937 23.7364 26.5675 23.7364H29.8811V30.3955H26.4178C26.3942 30.3955 26.3706 30.3972 26.3472 30.4006L24.5445 30.6669C24.2803 30.7059 24.0979 30.9516 24.1369 31.2158C24.1723 31.456 24.3787 31.6286 24.6144 31.6286C24.638 31.6286 24.6618 31.6269 24.6857 31.6234L26.4533 31.3623H29.881V31.759C29.881 32.242 30.274 32.635 30.7571 32.635H32.1239C32.607 32.635 33 32.242 33 31.759V23.6455C33 23.1625 32.607 22.7694 32.1239 22.7694ZM1.13147 21.709C1.49627 21.01 2.38334 20.7274 3.08375 21.0936L3.69386 21.4125C3.6706 21.4396 3.64772 21.467 3.62554 21.4953C2.82523 22.5149 2.97721 23.9834 3.95097 24.8196L1.74248 23.6651C1.0355 23.2956 0.761441 22.4181 1.13147 21.709ZM32.0332 31.6682H30.848V23.7362H32.0332V31.6682Z" fill="#0E0D14"/>
</g>
<defs>
<clipPath id="clip0_2517_2034">
<rect width="33" height="33" fill="white"/>
</clipPath>
</defs>
</svg>
