<svg width="47" height="47" viewBox="0 0 47 47" fill="none" xmlns="http://www.w3.org/2000/svg">
<g filter="url(#filter0_d_2517_1416)">
<path fill-rule="evenodd" clip-rule="evenodd" d="M23.3047 33.1021C24.5266 33.1021 25.7366 32.8614 26.8655 32.3938C27.9944 31.9262 29.0201 31.2408 29.8841 30.3768C30.7481 29.5128 31.4335 28.487 31.9011 27.3581C32.3687 26.2292 32.6094 25.0193 32.6094 23.7974C32.6094 22.5755 32.3687 21.3655 31.9011 20.2366C31.4335 19.1077 30.7481 18.082 29.8841 17.218C29.0201 16.3539 27.9944 15.6686 26.8655 15.201C25.7366 14.7333 24.5266 14.4927 23.3047 14.4927C20.8369 14.4927 18.4703 15.473 16.7253 17.218C14.9803 18.9629 14 21.3296 14 23.7974C14 26.2651 14.9803 28.6318 16.7253 30.3768C18.4703 32.1218 20.8369 33.1021 23.3047 33.1021ZM23.0648 27.5606L28.2341 21.3575L26.6461 20.0341L22.2005 25.3678L19.9002 23.0664L18.4383 24.5283L21.5399 27.6299L22.3401 28.4301L23.0648 27.5606Z" fill="#FFCC00"/>
</g>
<defs>
<filter id="filter0_d_2517_1416" x="0.249715" y="0.742391" width="46.1099" height="46.11" filterUnits="userSpaceOnUse" color-interpolation-filters="sRGB">
<feFlood flood-opacity="0" result="BackgroundImageFix"/>
<feColorMatrix in="SourceAlpha" type="matrix" values="0 0 0 0 0 0 0 0 0 0 0 0 0 0 0 0 0 0 127 0" result="hardAlpha"/>
<feOffset/>
<feGaussianBlur stdDeviation="6.87514"/>
<feComposite in2="hardAlpha" operator="out"/>
<feColorMatrix type="matrix" values="0 0 0 0 1 0 0 0 0 0.8 0 0 0 0 0 0 0 0 1 0"/>
<feBlend mode="normal" in2="BackgroundImageFix" result="effect1_dropShadow_2517_1416"/>
<feBlend mode="normal" in="SourceGraphic" in2="effect1_dropShadow_2517_1416" result="shape"/>
</filter>
</defs>
</svg>
