<svg width="34" height="34" viewBox="0 0 34 34" fill="none" xmlns="http://www.w3.org/2000/svg">
<g clip-path="url(#clip0_2517_2019)">
<path d="M11.9531 5.3125C11.5866 5.3125 11.2891 5.61 11.2891 5.97656C11.2891 6.30992 11.5354 6.58684 11.8562 6.63332C11.8874 6.63797 11.9199 6.64062 11.9531 6.64062C12.3197 6.64062 12.6172 6.34312 12.6172 5.97656C12.6172 5.68238 12.4253 5.43203 12.1596 5.3457C12.0946 5.32379 12.0255 5.3125 11.9531 5.3125Z" fill="#0E0D14"/>
<path d="M33.3359 0H0.664062C0.297301 0 0 0.297301 0 0.664062V16.6016C0 16.9683 0.297301 17.259 0.664062 17.259H4.0709C4.01379 17.5513 3.98438 17.8558 3.98438 18.1575V33.3359C3.98438 33.7027 4.28168 34 4.64844 34H17C17.3667 34 17.6641 33.7027 17.6641 33.3359V29.0145C20.0661 28.0111 21.6484 25.6624 21.6484 23.0264V17.2656H33.3359C33.7026 17.2656 34 16.9683 34 16.6016V0.664062C34 0.297301 33.7026 0 33.3359 0ZM32.6719 3.91757C31.3728 3.65281 30.3472 2.62723 30.0824 1.32812H32.6719V3.91757ZM28.7357 1.32812C29.0278 3.36075 30.6393 4.97217 32.6719 5.26429V12.0013C30.6393 12.2934 29.0278 13.9049 28.7357 15.9374H20.1981C21.8913 14.3898 22.9766 11.6561 22.9766 8.63281C22.9766 6.3746 22.3844 4.2427 21.309 2.62969C20.9741 2.12726 20.6038 1.6923 20.206 1.32812H28.7357ZM12.6075 4.08631C12.9274 4.26574 13.3322 4.15172 13.5115 3.83177C14.4034 2.24068 15.675 1.32812 17 1.32812C18.1899 1.32812 19.3277 2.05202 20.204 3.3664C21.1354 4.76359 21.6484 6.63392 21.6484 8.63281C21.6484 10.3071 21.2722 11.9463 20.5892 13.2483C20.3472 13.7095 20.0708 14.1218 19.7687 14.4768C19.7681 14.3832 19.7649 14.2894 19.7564 14.1954C19.6697 13.2358 19.1662 12.3587 18.3751 11.789C18.2816 11.7216 18.1852 11.6597 18.086 11.6036C18.66 11.2446 19.0254 10.6081 19.0254 9.91386C19.0254 8.81536 18.1317 7.92167 17.0332 7.92167C16.667 7.92167 16.3691 7.62377 16.3691 7.25761C16.3691 6.95971 16.5711 6.70391 16.8455 6.6219C16.8951 6.63365 16.9467 6.64062 17 6.64062C17.0669 6.64062 17.1315 6.63047 17.1924 6.61207C17.378 6.65311 17.5689 6.76374 17.7513 6.94032C18.0146 7.19545 18.4351 7.18881 18.6902 6.92531C18.9454 6.66188 18.9387 6.24146 18.6752 5.98626C18.3265 5.64852 17.9776 5.46158 17.6641 5.3631V4.64844C17.6641 4.28168 17.3667 3.98438 17 3.98438C16.6333 3.98438 16.3359 4.28168 16.3359 4.64844V5.39345C15.5823 5.67926 15.041 6.41272 15.041 7.25754C15.041 8.35603 15.9347 9.24973 17.0332 9.24973C17.3994 9.24973 17.6973 9.54762 17.6973 9.91379C17.6973 10.192 17.5218 10.4429 17.2606 10.5381C16.9192 10.6623 16.5223 10.4938 16.1711 10.0758C15.9352 9.79492 15.5163 9.7584 15.2355 9.99434C14.9547 10.2302 14.9182 10.649 15.1541 10.9299C15.2821 11.0824 15.4179 11.2173 15.5591 11.3352C14.9809 11.5007 14.4382 11.8114 14.0016 12.248L13.2749 12.9747C12.6764 11.7203 12.3516 10.2105 12.3516 8.63281V8.6196C12.3516 8.25284 12.0543 7.95554 11.6875 7.95554C11.3207 7.95554 11.0234 8.25284 11.0234 8.6196V8.63281C11.0234 10.5799 11.4707 12.4492 12.2881 13.9618L10.3126 15.9375H5.26429C4.97217 13.9049 3.36075 12.2935 1.32812 12.0013V5.26429C3.36075 4.97217 4.97217 3.35411 5.26429 1.32148H13.7968C13.2552 1.81528 12.7667 2.44441 12.353 3.18232C12.1736 3.50227 12.2875 3.90695 12.6075 4.08631ZM3.91757 1.32812C3.65281 2.62723 2.62723 3.65281 1.32812 3.91757V1.32812H3.91757ZM1.32812 13.3481C2.62723 13.6128 3.65281 14.6384 3.91757 15.9375H1.32812V13.3481ZM20.3203 23.0264C20.3203 25.2526 18.9016 27.2211 16.7901 27.9247C16.5189 28.0151 16.3359 28.2688 16.3359 28.5547V32.6719H5.3125V18.1575C5.3125 17.8535 5.35434 17.5484 5.43522 17.259H9.15583C9.1201 17.4647 9.18113 17.6906 9.34004 17.8495C9.59935 18.1088 10.0198 18.1088 10.2792 17.8495C11.6279 16.5005 13.2334 14.8947 14.9408 13.1871C15.6516 12.4763 16.7964 12.2882 17.5988 12.8666C18.6015 13.5886 18.6965 14.9425 17.9545 15.7998C17.8967 15.838 18.5026 15.2535 13.9382 19.8266C13.4133 20.3525 13.2277 21.1123 13.454 21.8103C13.6037 22.2701 13.6797 22.7519 13.6797 23.2422C13.6797 24.5735 13.1047 25.8442 12.1022 26.7285C11.8272 26.9712 11.8009 27.3908 12.0435 27.6658C12.2854 27.94 12.705 27.9679 12.9808 27.7245C14.269 26.5882 15.0078 24.9545 15.0078 23.2422C15.0078 22.612 14.9099 21.9918 14.7172 21.3998C14.6456 21.1793 14.7074 20.936 14.8783 20.7648C15.817 19.8242 17.5712 18.0693 18.3748 17.2656H20.3203V23.0264ZM30.0824 15.9375C30.3472 14.6384 31.3728 13.6128 32.6719 13.3481V15.9375H30.0824Z" fill="#0E0D14"/>
</g>
<defs>
<clipPath id="clip0_2517_2019">
<rect width="34" height="34" fill="white"/>
</clipPath>
</defs>
</svg>
