<svg width="30" height="30" viewBox="0 0 30 30" fill="none" xmlns="http://www.w3.org/2000/svg">
<g clip-path="url(#clip0_2731_2022)">
<path d="M26.7188 3.93742C26.3964 3.72889 26.0278 3.60273 25.6453 3.57004C25.2627 3.53734 24.8781 3.59912 24.525 3.74992L12.9562 8.30617C12.6826 8.41857 12.3895 8.47592 12.0938 8.47492H4.6875C4.0659 8.47492 3.46976 8.72185 3.03022 9.16139C2.59068 9.60093 2.34375 10.1971 2.34375 10.8187V11.0062H0V16.6312H2.34375V16.8749C2.35844 17.4867 2.61184 18.0685 3.04979 18.496C3.48775 18.9234 4.07552 19.1626 4.6875 19.1624L7.5 25.1249C7.69044 25.5264 7.99027 25.8661 8.36505 26.1049C8.73983 26.3437 9.17437 26.472 9.61875 26.4749H10.8C11.4183 26.47 12.0097 26.2209 12.4452 25.7819C12.8807 25.3429 13.125 24.7495 13.125 24.1312V19.3874L24.525 23.9437C24.8058 24.054 25.1046 24.1112 25.4062 24.1124C25.8743 24.1038 26.3299 23.9606 26.7188 23.6999C27.0271 23.4917 27.2815 23.213 27.4609 22.887C27.6402 22.5609 27.7393 22.1969 27.75 21.8249V5.86867C27.7483 5.48714 27.6534 5.1118 27.4737 4.77524C27.294 4.43868 27.0349 4.15108 26.7188 3.93742ZM10.7812 10.8187V16.8749H4.6875V10.8187H10.7812ZM10.7812 24.1312H9.6L7.29375 19.1624H10.7812V24.1312ZM13.8187 17.1562C13.5961 17.0425 13.364 16.9484 13.125 16.8749V10.6874C13.3616 10.6382 13.5937 10.5692 13.8187 10.4812L25.4062 5.86867V21.7687L13.8187 17.1562ZM27.8062 11.4749V16.1624C28.4279 16.1624 29.024 15.9155 29.4635 15.476C29.9031 15.0364 30.15 14.4403 30.15 13.8187C30.15 13.1971 29.9031 12.6009 29.4635 12.1614C29.024 11.7219 28.4279 11.4749 27.8062 11.4749Z" fill="black"/>
</g>
<defs>
<clipPath id="clip0_2731_2022">
<rect width="30" height="30" fill="white"/>
</clipPath>
</defs>
</svg>
