<svg width="30" height="30" viewBox="0 0 30 30" fill="none" xmlns="http://www.w3.org/2000/svg">
<path fill-rule="evenodd" clip-rule="evenodd" d="M11.756 3.62103C12.6253 2.88033 13.7219 2.45952 14.8635 2.42859C16.0051 2.39766 17.1229 2.75848 18.031 3.45103L18.2435 3.62103L18.7135 4.02103C19.0556 4.31307 19.4702 4.5074 19.9135 4.58353L20.136 4.61103L20.7523 4.66103C21.8939 4.75212 22.9696 5.23233 23.7996 6.02139C24.6296 6.81044 25.1636 7.86051 25.3123 8.99603L25.3385 9.24603L25.3885 9.86353C25.4239 10.3114 25.5794 10.7415 25.8385 11.1085L25.976 11.286L26.3785 11.756C27.1192 12.6253 27.54 13.7219 27.571 14.8635C27.6019 16.0051 27.2411 17.1229 26.5485 18.031L26.3785 18.2435L25.9773 18.7135C25.6852 19.0556 25.4909 19.4702 25.4148 19.9135L25.3873 20.136L25.3385 20.7523C25.2474 21.8939 24.7672 22.9696 23.9782 23.7996C23.1891 24.6296 22.1391 25.1636 21.0035 25.3123L20.7523 25.3385L20.136 25.3885C19.6881 25.4239 19.2581 25.5794 18.891 25.8385L18.7135 25.9773L18.2423 26.3773C17.3732 27.1182 16.2766 27.5392 15.135 27.5704C13.9934 27.6015 12.8755 27.2409 11.9673 26.5485L11.756 26.3785L11.286 25.9773C10.9439 25.6852 10.5294 25.4909 10.086 25.4148L9.86353 25.3885L9.24728 25.3385C8.10569 25.2474 7.02997 24.7672 6.19996 23.9782C5.36995 23.1891 4.83597 22.1391 4.68728 21.0035L4.66103 20.7535L4.61103 20.136C4.57563 19.6881 4.42018 19.2581 4.16103 18.891L4.02228 18.7135L3.62103 18.2423C2.88033 17.373 2.45952 16.2764 2.42859 15.1348C2.39766 13.9932 2.75848 12.8754 3.45103 11.9673L3.62103 11.756L4.02103 11.286C4.31307 10.9439 4.5074 10.5294 4.58353 10.086L4.61103 9.86353L4.66103 9.24728C4.75212 8.10569 5.23233 7.02997 6.02139 6.19996C6.81044 5.36995 7.86051 4.83597 8.99603 4.68728L9.24603 4.66103L9.86353 4.61103C10.3114 4.57563 10.7415 4.42018 11.1085 4.16103L11.286 4.02228L11.756 3.62103ZM18.1248 16.2498C17.6275 16.2498 17.1506 16.4473 16.799 16.799C16.4473 17.1506 16.2498 17.6275 16.2498 18.1248C16.2498 18.6221 16.4473 19.099 16.799 19.4506C17.1506 19.8022 17.6275 19.9998 18.1248 19.9998C18.6221 19.9998 19.099 19.8022 19.4506 19.4506C19.8022 19.099 19.9998 18.6221 19.9998 18.1248C19.9998 17.6275 19.8022 17.1506 19.4506 16.799C19.099 16.4473 18.6221 16.2498 18.1248 16.2498ZM17.866 10.366L10.366 17.866C10.2466 17.9813 10.1514 18.1193 10.0859 18.2718C10.0204 18.4243 9.98591 18.5883 9.98447 18.7543C9.98303 18.9203 10.0147 19.0849 10.0775 19.2385C10.1404 19.3921 10.2332 19.5317 10.3505 19.649C10.4679 19.7664 10.6075 19.8592 10.7611 19.9221C10.9147 19.9849 11.0793 20.0165 11.2453 20.0151C11.4113 20.0137 11.5753 19.9792 11.7278 19.9137C11.8803 19.8481 12.0182 19.7529 12.1335 19.6335L19.6335 12.1335C19.8612 11.8978 19.9872 11.582 19.9844 11.2543C19.9815 10.9265 19.8501 10.613 19.6183 10.3813C19.3865 10.1495 19.073 10.018 18.7453 10.0152C18.4175 10.0123 18.1018 10.1383 17.866 10.366ZM11.8748 9.99978C11.3775 9.99978 10.9006 10.1973 10.549 10.549C10.1973 10.9006 9.99978 11.3775 9.99978 11.8748C9.99978 12.3721 10.1973 12.849 10.549 13.2006C10.9006 13.5522 11.3775 13.7498 11.8748 13.7498C12.3721 13.7498 12.849 13.5522 13.2006 13.2006C13.5522 12.849 13.7498 12.3721 13.7498 11.8748C13.7498 11.3775 13.5522 10.9006 13.2006 10.549C12.849 10.1973 12.3721 9.99978 11.8748 9.99978Z" fill="black"/>
</svg>
