<svg width="24" height="24" viewBox="0 0 24 24" fill="none" xmlns="http://www.w3.org/2000/svg">
<path d="M15.3589 15.2902C15.9374 14.7097 16.0155 13.8494 15.533 13.3658C15.0504 12.8833 14.1891 12.9614 13.6096 13.5409C13.0312 14.1203 12.1699 14.1985 11.6873 13.7159C11.2048 13.2333 11.2829 12.372 11.8623 11.7936M11.8623 11.7936L11.5123 11.4435M11.8623 11.7936C12.1897 11.4653 12.6069 11.2991 12.9956 11.3021M15.708 15.6392L15.3579 15.2892C14.9624 15.6857 14.4334 15.8479 13.9844 15.7549M8.65154 10.8294C9.04269 10.8294 9.42506 10.7134 9.75029 10.4961C10.0755 10.2788 10.329 9.96995 10.4787 9.60857C10.6284 9.24719 10.6676 8.84954 10.5912 8.4659C10.5149 8.08226 10.3266 7.72987 10.05 7.45328C9.7734 7.17669 9.421 6.98834 9.03737 6.91203C8.65373 6.83572 8.25608 6.87488 7.8947 7.02457C7.53332 7.17426 7.22445 7.42774 7.00713 7.75298C6.78982 8.07821 6.67383 8.46058 6.67383 8.85173" stroke="black" stroke-width="1.97771" stroke-linecap="round"/>
<path d="M16.0973 4.74678C14.5686 3.219 13.8052 2.45461 12.8134 2.17081C11.8215 1.88602 10.7684 2.12928 8.66314 2.6158L7.44883 2.89564C5.6768 3.30404 4.79079 3.50873 4.18363 4.1149C3.57747 4.72206 3.37277 5.60807 2.96438 7.38009L2.68354 8.59441C2.19802 10.7007 1.95476 11.7528 2.23856 12.7446C2.52335 13.7364 3.28773 14.4998 4.81551 16.0276L6.62511 17.8372C9.28513 20.4982 10.6141 21.8263 12.2655 21.8263C13.9179 21.8263 15.2469 20.4972 17.906 17.8382C20.566 15.1782 21.895 13.8492 21.895 12.1968C21.895 10.8698 21.0367 9.75038 19.32 7.98231" stroke="black" stroke-width="1.97771" stroke-linecap="round"/>
</svg>
