<svg width="24" height="24" viewBox="0 0 24 24" fill="none" xmlns="http://www.w3.org/2000/svg">
<path d="M3.77929 12.9266L3.25718 13.4526C3.39607 13.5903 3.58372 13.6676 3.77929 13.6676C3.97486 13.6676 4.16251 13.5903 4.30141 13.4526L3.77929 12.9266ZM5.96268 11.8052C6.10247 11.6665 6.18141 11.4779 6.18215 11.281C6.1829 11.084 6.10537 10.8948 5.96664 10.7551C5.89794 10.6858 5.81629 10.6308 5.72633 10.5932C5.63638 10.5555 5.53989 10.5359 5.44237 10.5356C5.24543 10.5348 5.05626 10.6124 4.91647 10.7511L5.96268 11.8052ZM2.64013 10.7511C2.49971 10.6165 2.31201 10.5424 2.1175 10.5449C1.92298 10.5473 1.73722 10.6261 1.60025 10.7643C1.46329 10.9024 1.38607 11.0888 1.38526 11.2834C1.38445 11.4779 1.4601 11.6649 1.5959 11.8042L2.64013 10.7511ZM18.5488 7.38108C18.5985 7.46669 18.6649 7.54147 18.7439 7.60103C18.823 7.66059 18.9132 7.70371 19.0092 7.72787C19.1052 7.75202 19.2051 7.75671 19.3029 7.74165C19.4008 7.7266 19.4946 7.69211 19.5789 7.64023C19.6632 7.58834 19.7363 7.5201 19.7938 7.43953C19.8513 7.35896 19.8921 7.26769 19.9138 7.1711C19.9355 7.07451 19.9376 6.97456 19.92 6.87714C19.9025 6.77972 19.8656 6.68679 19.8116 6.60385L18.5488 7.38108ZM16.845 3.63827C16.7621 3.58424 16.6691 3.54737 16.5717 3.52981C16.4743 3.51226 16.3743 3.51439 16.2778 3.53608C16.1812 3.55776 16.0899 3.59856 16.0093 3.65608C15.9288 3.71359 15.8605 3.78665 15.8086 3.87096C15.7567 3.95526 15.7223 4.0491 15.7072 4.14694C15.6922 4.24478 15.6968 4.34464 15.721 4.44064C15.7451 4.53664 15.7883 4.62684 15.8478 4.70591C15.9074 4.78498 15.9822 4.85133 16.0678 4.90104L16.845 3.63827ZM12.4644 3.78759C12.659 3.79424 12.8485 3.72407 12.9918 3.59224C13.1351 3.4604 13.2208 3.27748 13.2305 3.08298C13.2401 2.88847 13.1728 2.69799 13.0431 2.55267C12.9135 2.40735 12.7319 2.31885 12.5376 2.30629L12.4644 3.78759ZM12.0857 2.2964C7.09492 2.2964 3.03765 6.31213 3.03765 11.2782H4.52093C4.52093 7.14277 7.90281 3.77968 12.0857 3.77968V2.2964ZM3.03765 11.2782V12.9266H4.52093V11.2782H3.03765ZM4.30339 13.4536L5.96268 11.8052L4.91647 10.7511L3.2552 12.3995L4.30339 13.4536ZM4.30339 12.4005L2.64013 10.7511L1.59492 11.8042L3.25619 13.4517L4.30339 12.4005ZM19.8126 6.60582C19.0695 5.39841 18.0534 4.3823 16.846 3.63926L16.0688 4.90203C17.0784 5.52318 17.9282 6.37264 18.5498 7.38207L19.8126 6.60582ZM12.5376 2.30629C12.3867 2.29897 12.2357 2.29534 12.0847 2.29541V3.77869C12.2122 3.77869 12.3388 3.78166 12.4644 3.78858L12.5376 2.30629ZM20.2269 10.9489L20.749 10.4218C20.6102 10.2844 20.4227 10.2074 20.2274 10.2074C20.0321 10.2074 19.8446 10.2844 19.7058 10.4218L20.2269 10.9489ZM18.0386 12.0692C17.9693 12.1377 17.9142 12.2192 17.8764 12.309C17.8386 12.3988 17.8189 12.4952 17.8183 12.5926C17.8172 12.7894 17.8943 12.9785 18.0326 13.1184C18.171 13.2583 18.3592 13.3376 18.556 13.3387C18.7527 13.3398 18.9419 13.2627 19.0818 13.1243L18.0386 12.0692ZM21.374 13.1243C21.4428 13.1946 21.525 13.2505 21.6157 13.2887C21.7064 13.3269 21.8038 13.3467 21.9022 13.3469C22.0006 13.3471 22.0981 13.3277 22.1889 13.2899C22.2797 13.252 22.3621 13.1965 22.4313 13.1265C22.5004 13.0565 22.555 12.9734 22.5917 12.8821C22.6284 12.7908 22.6466 12.6931 22.6452 12.5947C22.6438 12.4963 22.6229 12.3992 22.5835 12.3089C22.5442 12.2187 22.4873 12.1372 22.4162 12.0692L21.374 13.1243ZM5.39903 16.4924C5.2957 16.3249 5.13009 16.2054 4.93861 16.16C4.74714 16.1147 4.5455 16.1473 4.37804 16.2506C4.21059 16.3539 4.09104 16.5196 4.0457 16.711C4.00036 16.9025 4.03294 17.1041 4.13627 17.2716L5.39903 16.4924ZM11.5448 20.0879C11.3482 20.0792 11.1562 20.149 11.0111 20.2819C10.866 20.4147 10.7796 20.5998 10.771 20.7964C10.7623 20.9929 10.8321 21.1849 10.965 21.33C11.0979 21.4751 11.2829 21.5615 11.4795 21.5701L11.5448 20.0879ZM7.17403 20.2738C7.34253 20.3753 7.54445 20.4057 7.73537 20.3583C7.92628 20.3109 8.09056 20.1896 8.19205 20.0211C8.29355 19.8526 8.32395 19.6507 8.27657 19.4598C8.22918 19.2689 8.1079 19.1046 7.9394 19.0031L7.17403 20.2738ZM11.8909 21.579C16.8964 21.579 20.9685 17.5663 20.9685 12.5973H19.4853C19.4853 16.7307 16.0935 20.0958 11.8909 20.0958V21.579ZM20.9685 12.5973V10.9489H19.4853V12.5973H20.9685ZM19.7058 10.4218L18.0386 12.0692L19.0818 13.1243L20.749 11.4759L19.7058 10.4218ZM19.7058 11.4759L21.374 13.1243L22.4162 12.0692L20.749 10.4218L19.7058 11.4759ZM11.4785 21.5701C11.616 21.5761 11.7524 21.579 11.8909 21.579V20.0958C11.7754 20.0956 11.6601 20.093 11.5448 20.0879L11.4785 21.5701ZM4.13627 17.2716C4.89559 18.4997 5.93702 19.529 7.17403 20.2738L7.9394 19.0031C6.9046 18.3803 6.03434 17.5195 5.39903 16.4924L4.13627 17.2716Z" fill="black"/>
</svg>
