<svg width="126" height="19" viewBox="0 0 126 19" fill="none" xmlns="http://www.w3.org/2000/svg">
<path fill-rule="evenodd" clip-rule="evenodd" d="M12.811 2.82237L17.531 11.7898L6.99456 11.2717L3.52588 0.890076L12.811 2.82237ZM12.9479 9.58867C12.4493 9.33939 11.8269 8.76101 11.418 8.32274L11.2746 8.16796C11.2746 8.51173 11.229 8.77404 11.0612 9.04939C10.996 9.15692 10.8999 9.25793 10.8021 9.34591L10.4975 9.56097C11.2811 9.56097 12.534 9.763 13.2199 9.763L12.9479 9.58867ZM13.7136 8.36347C14.0965 7.77694 13.5768 6.88248 13.1694 6.4719C12.8322 6.13465 12.5601 5.96683 12.301 5.73874L11.7634 5.31513C11.1345 4.86383 10.4079 4.23168 9.81806 3.79993L9.15007 3.31441L7.93138 4.68135C6.14246 6.62017 8.93012 8.45797 10.2922 8.3374C10.7337 8.29667 10.8494 8.15492 11.097 7.73132L11.765 8.21684C12.1805 8.47263 12.9251 8.80989 13.3926 8.60134C13.523 8.54758 13.6256 8.49381 13.7169 8.3651L13.7136 8.36347Z" fill="#FFCC00"/>
<path fill-rule="evenodd" clip-rule="evenodd" d="M16.2049 12.9352C13.3015 12.8423 10.3966 12.7478 7.49323 12.655C6.18657 14.5351 4.87991 16.4169 3.57324 18.2971C6.24522 18.126 8.9172 17.9566 11.5908 17.7855C12.1252 17.7513 12.3175 17.7301 12.8323 17.5476C14.0494 17.1159 15.4456 16.1774 15.1752 15.3514C17.1775 14.1523 17.417 13.0264 16.2081 12.9352H16.2049ZM5.64077 17.3733C5.93403 16.9904 6.24359 16.5636 6.53686 16.1807C8.91557 16.1025 11.2356 16.0422 13.6143 15.964C14.1292 15.9624 13.7512 16.6206 12.917 16.9415C12.5651 17.0768 12.2246 17.0654 11.858 17.08C9.7416 17.1615 7.7588 17.2902 5.64077 17.3717V17.3733ZM12.6384 15.1771L7.25862 15.2259L8.2769 13.8069C10.6018 13.8297 12.8144 13.8525 15.1377 13.8753C15.6982 13.8671 15.4228 14.4928 14.7613 14.8903C14.1634 15.2487 13.3048 15.1722 12.6384 15.1771Z" fill="white"/>
<path d="M2.50879 2.41589C3.22217 4.67659 3.89597 6.87391 4.60938 9.13464C4.92047 9.9866 5.08827 10.7916 5.02148 11.8407C4.98558 12.7515 4.5324 14.4412 3.64453 14.5292L3.64355 14.5302C3.46796 14.5595 3.10256 14.3868 2.92969 13.8729C2.92071 13.8339 2.91054 13.796 2.89844 13.7596C2.32335 11.544 1.79578 9.46842 1.2207 7.25281L1.20605 7.28113L1.2041 7.26453L0.210938 9.33972C0.140603 9.03179 0.0703739 8.72383 0 8.41589C0.841958 6.40953 1.66685 4.42062 2.50879 2.41589ZM1.66504 6.11707C2.1033 7.7707 2.56147 9.18151 2.94922 10.8466C3.0372 11.2229 3.12652 11.6857 3.2373 12.0604C3.33669 12.3977 3.45265 12.6652 3.59766 12.7352C4.06337 12.9592 4.38408 11.4921 4.07812 10.6337H4.08008C3.48214 8.63946 2.94071 6.66108 2.34277 4.66687C2.11631 5.15075 1.8915 5.63319 1.66504 6.11707ZM2.50879 2.41589V2.41394H2.51074L2.50879 2.41589Z" fill="white"/>
<path d="M2.09708 17.3123L2.82371 13.0355L2.42925 11.4992L1.74414 15.7759L2.09708 17.3123Z" fill="white"/>
<path d="M25.9543 17.4924V8.68082H32.0536C32.5218 8.68082 32.9348 8.74966 33.2928 8.88735C33.6507 9.02503 33.9399 9.20401 34.1739 9.45184C34.3942 9.69967 34.5732 10.0026 34.6833 10.3468C34.7935 10.7047 34.8623 11.0902 34.8623 11.5033C34.8623 11.7236 34.8348 11.9301 34.8073 12.0953C34.7797 12.2605 34.7384 12.412 34.6833 12.5497C34.6283 12.6874 34.5594 12.7975 34.4768 12.9076C34.3942 13.0178 34.2978 13.1417 34.1877 13.2518L34.2152 13.2656C34.3116 13.3758 34.408 13.4721 34.4906 13.5547C34.5732 13.6374 34.642 13.7337 34.6971 13.8439C34.7522 13.954 34.7935 14.0917 34.821 14.2432C34.8486 14.4084 34.8623 14.6011 34.8623 14.8352V17.4924H32.5493V14.8765C32.5493 14.7939 32.5218 14.6837 32.4667 14.5736C32.4116 14.4634 32.2877 14.3808 32.0949 14.3258H28.2536V17.4924H25.9543ZM31.9986 10.8837H28.2536V12.1229H32.1362C32.3152 12.0953 32.4391 12.0127 32.4942 11.875C32.5493 11.7374 32.5768 11.6134 32.5768 11.5308C32.5768 11.4895 32.5631 11.4345 32.5631 11.3518C32.5493 11.283 32.5218 11.2142 32.4804 11.1453C32.4391 11.0765 32.3841 11.0214 32.3015 10.9663C32.2189 10.9113 32.1225 10.8837 31.9986 10.8837ZM45.2286 11.8475V14.3258C45.2286 15.3446 44.9394 16.1294 44.3749 16.6801C43.8104 17.2308 43.0394 17.4924 42.0481 17.4924H38.9365C37.9452 17.4924 37.1604 17.2308 36.5959 16.6801C36.0314 16.1294 35.7561 15.3446 35.7561 14.3258V11.8475C35.7561 10.8287 36.0314 10.0576 36.5959 9.50691C37.1604 8.95619 37.9452 8.68082 38.9365 8.68082H42.0481C43.0394 8.68082 43.8104 8.95619 44.3749 9.50691C44.9394 10.0576 45.2286 10.8287 45.2286 11.8475ZM41.6075 15.2895C41.759 15.2895 41.9104 15.262 42.0757 15.2069C42.2409 15.1518 42.3786 15.083 42.5025 14.9729C42.6264 14.8765 42.7228 14.7663 42.8054 14.6287C42.888 14.491 42.9293 14.3533 42.9293 14.1881V11.9852C42.9293 11.8337 42.888 11.696 42.8054 11.5584C42.7228 11.4207 42.6264 11.3105 42.5025 11.2004C42.3786 11.104 42.2409 11.0214 42.0757 10.9663C41.9104 10.9113 41.759 10.8837 41.6075 10.8837H39.3771C39.2119 10.8837 39.0604 10.9113 38.8952 10.9663C38.73 11.0214 38.5923 11.104 38.4684 11.2004C38.3445 11.3105 38.2481 11.4207 38.1655 11.5584C38.0829 11.696 38.0554 11.8337 38.0554 11.9852V14.1881C38.0554 14.3533 38.0829 14.491 38.1655 14.6287C38.2481 14.7663 38.3445 14.8765 38.4684 14.9729C38.5923 15.083 38.73 15.1518 38.8952 15.2069C39.0604 15.262 39.2119 15.2895 39.3771 15.2895H41.6075ZM46.1225 8.68082H48.3943V15.2895H53.3095V17.4924H46.1225V8.68082ZM54.1898 8.68082H56.4615V15.2895H61.3768V17.4924H54.1898V8.68082ZM68.3839 17.4924H62.2571V8.68082H68.3839C69.3201 8.68082 70.0223 8.94242 70.4904 9.45184C70.9585 9.97503 71.1926 10.6497 71.1926 11.4895C71.1926 11.7098 71.1788 11.9026 71.1513 12.054C71.1237 12.2055 71.0824 12.3431 71.0274 12.4533C70.9723 12.5634 70.9172 12.6736 70.8346 12.77C70.752 12.8801 70.6694 12.9765 70.573 13.0866C70.6694 13.1968 70.752 13.2931 70.8346 13.3758C70.9172 13.4721 70.9723 13.5823 71.0274 13.6924C71.0824 13.8026 71.1237 13.9403 71.1513 14.1055C71.1788 14.2707 71.1926 14.4634 71.1926 14.6837C71.1926 15.1105 71.1237 15.4961 71.0136 15.8403C70.9034 16.1845 70.7245 16.4736 70.5042 16.7214C70.2701 16.9692 69.981 17.162 69.623 17.2997C69.265 17.4374 68.852 17.4924 68.3839 17.4924ZM68.9071 14.725C68.9071 14.6424 68.8795 14.5461 68.8245 14.4359C68.7694 14.3258 68.6455 14.2432 68.4527 14.1881H64.5563V15.2895H68.3288C68.4527 15.2895 68.5491 15.2758 68.6317 15.2345C68.7143 15.1932 68.7694 15.1381 68.8107 15.083C68.852 15.0279 68.8795 14.9591 68.8933 14.8903C68.8933 14.8352 68.9071 14.7801 68.9071 14.725ZM68.3288 10.8837H64.5563V11.9852H68.4665C68.6455 11.9576 68.7694 11.8888 68.8245 11.7649C68.8795 11.6547 68.9071 11.5446 68.9071 11.4482C68.9071 11.4069 68.8933 11.3518 68.8933 11.283C68.8795 11.2279 68.852 11.1591 68.8107 11.104C68.7694 11.0489 68.7143 10.9939 68.6317 10.9526C68.5491 10.9113 68.4527 10.8837 68.3288 10.8837ZM72.0857 8.68082H74.3574V15.2895H79.2726V17.4924H72.0857V8.68082ZM89.5313 11.8475V14.3258C89.5313 15.3446 89.2422 16.1294 88.6777 16.6801C88.1132 17.2308 87.3422 17.4924 86.3509 17.4924H83.2393C82.248 17.4924 81.4632 17.2308 80.8987 16.6801C80.3342 16.1294 80.0588 15.3446 80.0588 14.3258V11.8475C80.0588 10.8287 80.3342 10.0576 80.8987 9.50691C81.4632 8.95619 82.248 8.68082 83.2393 8.68082H86.3509C87.3422 8.68082 88.1132 8.95619 88.6777 9.50691C89.2422 10.0576 89.5313 10.8287 89.5313 11.8475ZM85.9103 15.2895C86.0617 15.2895 86.2132 15.262 86.3784 15.2069C86.5436 15.1518 86.6813 15.083 86.8052 14.9729C86.9291 14.8765 87.0255 14.7663 87.1081 14.6287C87.1907 14.491 87.232 14.3533 87.232 14.1881V11.9852C87.232 11.8337 87.1907 11.696 87.1081 11.5584C87.0255 11.4207 86.9291 11.3105 86.8052 11.2004C86.6813 11.104 86.5436 11.0214 86.3784 10.9663C86.2132 10.9113 86.0617 10.8837 85.9103 10.8837H83.6798C83.5146 10.8837 83.3632 10.9113 83.198 10.9663C83.0327 11.0214 82.8951 11.104 82.7711 11.2004C82.6472 11.3105 82.5509 11.4207 82.4682 11.5584C82.3856 11.696 82.3581 11.8337 82.3581 11.9852V14.1881C82.3581 14.3533 82.3856 14.491 82.4682 14.6287C82.5509 14.7663 82.6472 14.8765 82.7711 14.9729C82.8951 15.083 83.0327 15.1518 83.198 15.2069C83.3632 15.262 83.5146 15.2895 83.6798 15.2895H85.9103ZM98.9753 17.4924H93.6057C92.6144 17.4924 91.8296 17.2308 91.2651 16.6801C90.7006 16.1294 90.4253 15.3446 90.4253 14.3258V11.8475C90.4253 10.8287 90.7006 10.0576 91.2651 9.50691C91.8296 8.95619 92.6144 8.68082 93.6057 8.68082H98.9753V10.8837H94.0325C93.8673 10.8837 93.7159 10.9113 93.5644 10.9663C93.3992 11.0214 93.2615 11.104 93.1376 11.2004C93.0137 11.3105 92.9173 11.4207 92.8347 11.5584C92.7521 11.696 92.7245 11.8337 92.7245 11.9852V14.1881C92.7245 14.3533 92.7521 14.491 92.8347 14.6287C92.9173 14.7663 93.0137 14.8765 93.1376 14.9729C93.2615 15.083 93.3992 15.1518 93.5644 15.2069C93.7159 15.262 93.8673 15.2895 94.0325 15.2895H98.9753V17.4924ZM105.151 14.1881H102.163V17.4924H99.864V8.68082H102.163V11.9852H103.526L106.156 8.68082H108.978L106.376 12.0265C106.762 12.054 107.106 12.1504 107.409 12.3156C107.712 12.4808 107.96 12.7011 108.166 12.9765C108.359 13.2518 108.51 13.5823 108.62 13.9403C108.717 14.312 108.772 14.7113 108.772 15.1381V17.4924H106.473V15.2895C106.473 15.1381 106.431 14.9866 106.349 14.8489C106.266 14.7113 106.17 14.6011 106.046 14.5047C105.922 14.4084 105.784 14.3258 105.633 14.2707C105.468 14.2156 105.316 14.1881 105.151 14.1881Z" fill="white"/>
</svg>
