<svg width="16" height="20" viewBox="0 0 16 20" fill="none" xmlns="http://www.w3.org/2000/svg">
<path d="M7.92147 19.9545C11.8109 19.9545 15.7472 18.6105 15.7472 16.0417V4.30302C15.7472 1.73421 11.8109 0.390137 7.92147 0.390137C4.03206 0.390137 0.0957031 1.73421 0.0957031 4.30302V16.0417C0.0957031 18.6105 4.03206 19.9545 7.92147 19.9545ZM7.92147 17.9981C4.28053 17.9981 2.05214 16.7313 2.05214 16.0417V14.8013C3.55958 15.621 5.74688 16.0417 7.92147 16.0417C10.0961 16.0417 12.2834 15.621 13.7908 14.8013V16.0417C13.7908 16.7313 11.5624 17.9981 7.92147 17.9981ZM7.92147 2.34658C11.5624 2.34658 13.7908 3.61337 13.7908 4.30302C13.7908 4.99266 11.5624 6.25946 7.92147 6.25946C4.28053 6.25946 2.05214 4.99266 2.05214 4.30302C2.05214 3.61337 4.28053 2.34658 7.92147 2.34658ZM2.05214 6.97552C3.55958 7.79527 5.74688 8.2159 7.92147 8.2159C10.0961 8.2159 12.2834 7.79527 13.7908 6.97552V8.2159C13.7908 8.90555 11.5624 10.1723 7.92147 10.1723C4.28053 10.1723 2.05214 8.90555 2.05214 8.2159V6.97552ZM2.05214 10.8884C3.55958 11.7081 5.74688 12.1288 7.92147 12.1288C10.0961 12.1288 12.2834 11.7081 13.7908 10.8884V12.1288C13.7908 12.8184 11.5624 14.0852 7.92147 14.0852C4.28053 14.0852 2.05214 12.8184 2.05214 12.1288V10.8884Z" fill="black"/>
</svg>
