<svg width="30" height="30" viewBox="0 0 30 30" fill="none" xmlns="http://www.w3.org/2000/svg">
<path d="M18.75 6.75C18.75 7.74456 18.3549 8.69839 17.6517 9.40165C16.9484 10.1049 15.9946 10.5 15 10.5C14.0054 10.5 13.0516 10.1049 12.3483 9.40165C11.6451 8.69839 11.25 7.74456 11.25 6.75C11.25 5.75544 11.6451 4.80161 12.3483 4.09835C13.0516 3.39509 14.0054 3 15 3C15.9946 3 16.9484 3.39509 17.6517 4.09835C18.3549 4.80161 18.75 5.75544 18.75 6.75ZM26.25 7.5C26.25 8.29565 25.9339 9.05871 25.3713 9.62132C24.8087 10.1839 24.0456 10.5 23.25 10.5C22.4544 10.5 21.6913 10.1839 21.1287 9.62132C20.5661 9.05871 20.25 8.29565 20.25 7.5C20.25 6.70435 20.5661 5.94129 21.1287 5.37868C21.6913 4.81607 22.4544 4.5 23.25 4.5C24.0456 4.5 24.8087 4.81607 25.3713 5.37868C25.9339 5.94129 26.25 6.70435 26.25 7.5ZM6.75 10.5C7.54565 10.5 8.30871 10.1839 8.87132 9.62132C9.43393 9.05871 9.75 8.29565 9.75 7.5C9.75 6.70435 9.43393 5.94129 8.87132 5.37868C8.30871 4.81607 7.54565 4.5 6.75 4.5C5.95435 4.5 5.19129 4.81607 4.62868 5.37868C4.06607 5.94129 3.75 6.70435 3.75 7.5C3.75 8.29565 4.06607 9.05871 4.62868 9.62132C5.19129 10.1839 5.95435 10.5 6.75 10.5ZM9 13.875C9 12.84 9.84 12 10.875 12H19.125C20.16 12 21 12.84 21 13.875V21C21 22.5913 20.3679 24.1174 19.2426 25.2426C18.1174 26.3679 16.5913 27 15 27C13.4087 27 11.8826 26.3679 10.7574 25.2426C9.63214 24.1174 9 22.5913 9 21V13.875ZM7.5 13.875C7.5 13.1805 7.71 12.537 8.0685 12H4.875C3.84 12 3 12.84 3 13.875V19.5C2.99993 20.1422 3.13731 20.7769 3.4029 21.3616C3.6685 21.9463 4.05616 22.4674 4.53983 22.8898C5.02351 23.3122 5.592 23.6263 6.2071 23.8108C6.8222 23.9953 7.46967 24.046 8.106 23.9595C7.70536 23.0243 7.49918 22.0174 7.5 21V13.875ZM22.5 21C22.5 22.05 22.284 23.052 21.894 23.9595C22.092 23.9865 22.294 24 22.5 24C23.6935 24 24.8381 23.5259 25.682 22.682C26.5259 21.8381 27 20.6935 27 19.5V13.875C27 12.84 26.16 12 25.125 12H21.9315C22.2915 12.537 22.5 13.1805 22.5 13.875V21Z" fill="black"/>
</svg>
